<svg version="1.1" viewBox="0.0 0.0 562.6010498687664 133.63517060367454" fill="none" stroke="none" stroke-linecap="square" stroke-miterlimit="10" xmlns:xlink="http://www.w3.org/1999/xlink" xmlns="http://www.w3.org/2000/svg"><clipPath id="p.0"><path d="m0 0l562.6011 0l0 133.63518l-562.6011 0l0 -133.63518z" clip-rule="nonzero"/></clipPath><g clip-path="url(#p.0)"><path fill="#ffffff" d="m0 0l562.6011 0l0 133.63518l-562.6011 0z" fill-rule="evenodd"/><path fill="#cfe2f3" d="m381.61063 23.124763l0 0c0 -2.5135994 2.0376892 -4.5512733 4.5512695 -4.5512733l163.3699 0c1.2070923 0 2.364685 0.47950745 3.2182617 1.3330383c0.8535156 0.853529 1.3330078 2.0111618 1.3330078 3.218235l0 18.20454c0 2.5135994 -2.0376587 4.5512733 -4.5512695 4.5512733l-163.3699 0c-2.5135803 0 -4.5512695 -2.037674 -4.5512695 -4.5512733z" fill-rule="evenodd"/><path stroke="#000000" stroke-width="1.0" stroke-linejoin="round" stroke-linecap="butt" d="m381.61063 23.124763l0 0c0 -2.5135994 2.0376892 -4.5512733 4.5512695 -4.5512733l163.3699 0c1.2070923 0 2.364685 0.47950745 3.2182617 1.3330383c0.8535156 0.853529 1.3330078 2.0111618 1.3330078 3.218235l0 18.20454c0 2.5135994 -2.0376587 4.5512733 -4.5512695 4.5512733l-163.3699 0c-2.5135803 0 -4.5512695 -2.037674 -4.5512695 -4.5512733z" fill-rule="evenodd"/><path fill="#000000" d="m398.74182 38.212032q-0.953125 0 -1.890625 -0.28125q-0.921875 -0.296875 -1.609375 -0.875q-0.15625 -0.109375 -0.203125 -0.25q-0.046875 -0.140625 -0.015625 -0.265625q0.046875 -0.140625 0.140625 -0.234375q0.09375 -0.09375 0.234375 -0.09375q0.140625 -0.015625 0.328125 0.109375q0.71875 0.515625 1.453125 0.765625q0.75 0.234375 1.5625 0.234375q0.859375 0 1.453125 -0.265625q0.59375 -0.265625 0.90625 -0.765625q0.3125 -0.515625 0.3125 -1.28125q0 -1.078125 -0.71875 -1.640625q-0.703125 -0.578125 -2.046875 -0.578125l-1.203125 0q-0.21875 0 -0.359375 -0.109375q-0.125 -0.125 -0.125 -0.328125q0 -0.203125 0.125 -0.3125q0.140625 -0.10937309 0.359375 -0.10937309l1.125 0q0.78125 0 1.34375 -0.28125q0.5625 -0.296875 0.875 -0.8125q0.3125 -0.53125 0.3125 -1.265625q0 -0.953125 -0.625 -1.46875q-0.609375 -0.53125 -1.78125 -0.53125q-0.78125 0 -1.46875 0.25q-0.6875 0.25 -1.3125 0.796875q-0.140625 0.125 -0.296875 0.140625q-0.140625 0 -0.25 -0.078125q-0.09375 -0.078125 -0.140625 -0.21875q-0.046875 -0.140625 0 -0.28125q0.046875 -0.15625 0.203125 -0.28125q0.625 -0.59375 1.5 -0.90625q0.875 -0.3125 1.796875 -0.3125q1.0625 0 1.8125 0.34375q0.75 0.328125 1.15625 0.96875q0.40625 0.640625 0.40625 1.53125q0 0.703125 -0.265625 1.28125q-0.265625 0.578125 -0.75 0.984375q-0.46875 0.3906231 -1.140625 0.5624981l0 -0.171875q1.171875 0.203125 1.8125 0.96875q0.65625 0.765625 0.65625 1.90625q0 0.96875 -0.453125 1.6875q-0.4375 0.703125 -1.25 1.09375q-0.8125 0.375 -1.96875 0.375zm6.662506 -0.078125q-0.328125 0 -0.53125 -0.203125q-0.203125 -0.21875 -0.203125 -0.53125q0 -0.328125 0.203125 -0.53125q0.203125 -0.203125 0.53125 -0.203125q0.328125 0 0.53125 0.203125q0.203125 0.203125 0.203125 0.53125q0 0.3125 -0.203125 0.53125q-0.203125 0.203125 -0.53125 0.203125zm6.0829163 0.03125q-0.234375 0.015625 -0.359375 -0.109375q-0.140625 -0.140625 -0.140625 -0.34375q0 -0.140625 0.109375 -0.25q0.09375 -0.125 0.28125 -0.140625l0.53125 -0.046875q0.84375 -0.0625 1.3125 -0.625q0.46875 -0.5625 0.46875 -1.484375l0 -7.953123q0 -0.25 0.125 -0.375q0.125 -0.125 0.375 -0.125q0.234375 0 0.359375 0.125q0.125 0.125 0.125 0.375l0 7.968748q0 0.875 -0.3125 1.515625q-0.296875 0.640625 -0.890625 1.0q-0.59375 0.359375 -1.46875 0.4375l-0.515625 0.03125zm8.663116 0.046875q-0.921875 0 -1.546875 -0.328125q-0.609375 -0.34375 -0.921875 -1.015625q-0.296875 -0.671875 -0.296875 -1.65625l0 -4.484373q0 -0.25 0.125 -0.375q0.125 -0.140625 0.375 -0.140625q0.21875 0 0.34375 0.140625q0.125 0.125 0.125 0.375l0 4.437498q0 1.109375 0.46875 1.671875q0.46875 0.546875 1.453125 0.546875q1.09375 0 1.765625 -0.71875q0.671875 -0.734375 0.671875 -1.921875l0 -4.015623q0 -0.25 0.125 -0.375q0.125 -0.140625 0.375 -0.140625q0.21875 0 0.34375 0.140625q0.125 0.125 0.125 0.375l0 6.953123q0 0.5 -0.453125 0.5q-0.234375 0 -0.359375 -0.125q-0.125 -0.125 -0.125 -0.375l0 -1.578125l0.1875 0.109375q-0.296875 0.984375 -1.0625 1.5q-0.75 0.5 -1.71875 0.5zm6.6136475 2.84375q-0.25 0 -0.375 -0.125q-0.125 -0.125 -0.125 -0.359375l0 -9.843748q0 -0.25 0.125 -0.375q0.125 -0.140625 0.375 -0.140625q0.21875 0 0.34375 0.140625q0.125 0.125 0.125 0.375l0 1.6249981l-0.171875 -0.09375q0.28125 -0.9531231 1.046875 -1.5156231q0.765625 -0.5625 1.84375 -0.5625q1.046875 0 1.8125 0.5q0.78125 0.5 1.203125 1.3906231q0.4375 0.890625 0.4375 2.125q0 1.234375 -0.4375 2.140625q-0.421875 0.90625 -1.1875 1.390625q-0.765625 0.484375 -1.828125 0.484375q-1.078125 0 -1.84375 -0.546875q-0.765625 -0.5625 -1.046875 -1.5l0.171875 0l0 4.40625q0 0.234375 -0.125 0.359375q-0.125 0.125 -0.34375 0.125zm3.046875 -3.65625q0.78125 0 1.359375 -0.375q0.59375 -0.375 0.90625 -1.09375q0.328125 -0.71875 0.328125 -1.734375q0 -1.515625 -0.703125 -2.343748q-0.703125 -0.84375 -1.890625 -0.84375q-0.78125 0 -1.375 0.390625q-0.578125 0.375 -0.90625 1.0937481q-0.3125 0.703125 -0.3125 1.703125q0 1.53125 0.703125 2.375q0.703125 0.828125 1.890625 0.828125zm7.1821594 3.65625q-0.1875 0 -0.296875 -0.109375q-0.109375 -0.09375 -0.125 -0.265625q0 -0.15625 0.0625 -0.34375l1.09375 -2.5l0 0.4375l-3.125 -7.328123q-0.078125 -0.1875 -0.0625 -0.34375q0.03125 -0.171875 0.140625 -0.28125q0.125 -0.109375 0.34375 -0.109375q0.21875 0 0.3125 0.09375q0.109375 0.09375 0.1875 0.3125l2.84375 6.890623l-0.390625 0l2.84375 -6.890623q0.09375 -0.234375 0.203125 -0.3125q0.125 -0.09375 0.328125 -0.09375q0.203125 0 0.3125 0.109375q0.109375 0.109375 0.125 0.265625q0.015625 0.15625 -0.078125 0.34375l-4.171875 9.749998q-0.09375 0.21875 -0.21875 0.296875q-0.109375 0.078125 -0.328125 0.078125zm9.552887 -2.84375q-0.859375 0 -1.4375 -0.3125q-0.578125 -0.328125 -0.875 -0.921875q-0.28125 -0.609375 -0.28125 -1.484375l0 -4.374998l-1.171875 0q-0.21875 0 -0.34375 -0.109375q-0.125 -0.109375 -0.125 -0.296875q0 -0.171875 0.125 -0.28125q0.125 -0.109375 0.34375 -0.109375l1.171875 0l0 -2.0q0 -0.25 0.125 -0.359375q0.140625 -0.125 0.375 -0.125q0.234375 0 0.359375 0.125q0.125 0.109375 0.125 0.359375l0 2.0l2.15625 0q0.21875 0 0.328125 0.109375q0.125 0.109375 0.125 0.28125q0 0.1875 -0.125 0.296875q-0.109375 0.109375 -0.328125 0.109375l-2.15625 0l0 4.249998q0 0.96875 0.390625 1.484375q0.40625 0.515625 1.328125 0.515625q0.328125 0 0.546875 -0.0625q0.21875 -0.078125 0.359375 -0.078125q0.109375 0 0.1875 0.09375q0.09375 0.09375 0.09375 0.296875q0 0.125 -0.0625 0.265625q-0.046875 0.125 -0.1875 0.15625q-0.171875 0.0625 -0.484375 0.109375q-0.296875 0.0625 -0.5625 0.0625zm5.733124 0q-1.203125 0 -2.0625 -0.46875q-0.859375 -0.484375 -1.328125 -1.375q-0.46875 -0.90625 -0.46875 -2.140625q0 -1.21875 0.46875 -2.109375q0.46875 -0.9062481 1.28125 -1.4218731q0.828125 -0.515625 1.90625 -0.515625q0.78125 0 1.375 0.265625q0.609375 0.265625 1.03125 0.75q0.421875 0.484375 0.640625 1.1874981q0.234375 0.6875 0.234375 1.578125q0 0.21875 -0.125 0.328125q-0.125 0.109375 -0.328125 0.109375l-5.78125 0l0 -0.71875l5.625 0l-0.265625 0.21875q0 -0.9375 -0.28125 -1.578125q-0.265625 -0.6562481 -0.796875 -0.9999981q-0.53125 -0.359375 -1.3125 -0.359375q-0.890625 0 -1.5 0.421875q-0.59375 0.40625 -0.90625 1.1249981q-0.296875 0.703125 -0.296875 1.625l0 0.078125q0 1.53125 0.75 2.359375q0.75 0.828125 2.109375 0.828125q0.59375 0 1.140625 -0.15625q0.546875 -0.171875 1.078125 -0.546875q0.171875 -0.109375 0.3125 -0.109375q0.15625 0 0.25 0.078125q0.109375 0.078125 0.140625 0.203125q0.046875 0.109375 -0.015625 0.25q-0.046875 0.140625 -0.203125 0.25q-0.515625 0.421875 -1.234375 0.640625q-0.71875 0.203125 -1.4375 0.203125zm5.5570374 -0.03125q-0.25 0 -0.375 -0.125q-0.125 -0.125 -0.125 -0.375l0 -6.953123q0 -0.25 0.125 -0.375q0.125 -0.140625 0.375 -0.140625q0.21875 0 0.328125 0.140625q0.125 0.125 0.125 0.375l0 1.4218731l-0.15625 0q0.296875 -0.9374981 1.03125 -1.4531231q0.75 -0.515625 1.78125 -0.53125q0.203125 -0.015625 0.328125 0.078125q0.125 0.09375 0.125 0.3125q0.015625 0.21875 -0.09375 0.34375q-0.109375 0.109375 -0.375 0.140625l-0.21875 0.015625q-1.140625 0.125 -1.765625 0.765625q-0.625 0.6406231 -0.625 1.7187481l0 4.140625q0 0.25 -0.125 0.375q-0.109375 0.125 -0.359375 0.125zm9.660278 0q-0.21875 0 -0.34375 -0.125q-0.125 -0.125 -0.125 -0.375l0 -10.453123q0 -0.265625 0.109375 -0.390625q0.125 -0.125 0.3125 -0.125q0.203125 0 0.296875 0.0625q0.09375 0.0625 0.21875 0.234375l7.359375 9.906248l-0.375 0l0 -9.718748q0 -0.25 0.109375 -0.359375q0.125 -0.125 0.359375 -0.125q0.203125 0 0.3125 0.125q0.125 0.109375 0.125 0.359375l0 10.484373q0 0.25 -0.109375 0.375q-0.09375 0.125 -0.28125 0.125q-0.171875 0 -0.296875 -0.078125q-0.109375 -0.0625 -0.234375 -0.21875l-7.34375 -9.906248l0.359375 0l0 9.703123q0 0.25 -0.125 0.375q-0.125 0.125 -0.328125 0.125zm14.2135315 0.03125q-1.09375 0 -1.890625 -0.484375q-0.796875 -0.5 -1.25 -1.390625q-0.4375 -0.90625 -0.4375 -2.140625q0 -0.90625 0.25 -1.640625q0.25 -0.7343731 0.71875 -1.2656231q0.46875 -0.546875 1.125 -0.828125q0.671875 -0.28125 1.484375 -0.28125q1.09375 0 1.890625 0.5q0.8125 0.5 1.25 1.4062481q0.4375 0.890625 0.4375 2.109375q0 0.9375 -0.25 1.671875q-0.25 0.734375 -0.71875 1.265625q-0.46875 0.515625 -1.125 0.796875q-0.65625 0.28125 -1.484375 0.28125zm0 -0.8125q0.796875 0 1.375 -0.375q0.59375 -0.375 0.890625 -1.09375q0.3125 -0.71875 0.3125 -1.734375q0 -1.515625 -0.703125 -2.343748q-0.6875 -0.84375 -1.875 -0.84375q-0.796875 0 -1.375 0.390625q-0.578125 0.375 -0.890625 1.0937481q-0.3125 0.703125 -0.3125 1.703125q0 1.53125 0.703125 2.375q0.703125 0.828125 1.875 0.828125zm8.500122 0.8125q-0.859375 0 -1.4375 -0.3125q-0.578125 -0.328125 -0.875 -0.921875q-0.28125 -0.609375 -0.28125 -1.484375l0 -4.374998l-1.171875 0q-0.21875 0 -0.34375 -0.109375q-0.125 -0.109375 -0.125 -0.296875q0 -0.171875 0.125 -0.28125q0.125 -0.109375 0.34375 -0.109375l1.171875 0l0 -2.0q0 -0.25 0.125 -0.359375q0.140625 -0.125 0.375 -0.125q0.234375 0 0.359375 0.125q0.125 0.109375 0.125 0.359375l0 2.0l2.15625 0q0.21875 0 0.328125 0.109375q0.125 0.109375 0.125 0.28125q0 0.1875 -0.125 0.296875q-0.109375 0.109375 -0.328125 0.109375l-2.15625 0l0 4.249998q0 0.96875 0.390625 1.484375q0.40625 0.515625 1.328125 0.515625q0.328125 0 0.546875 -0.0625q0.21875 -0.078125 0.359375 -0.078125q0.109375 0 0.1875 0.09375q0.09375 0.09375 0.09375 0.296875q0 0.125 -0.0625 0.265625q-0.046875 0.125 -0.1875 0.15625q-0.171875 0.0625 -0.484375 0.109375q-0.296875 0.0625 -0.5625 0.0625zm5.7331543 0q-1.203125 0 -2.0625 -0.46875q-0.859375 -0.484375 -1.328125 -1.375q-0.46875 -0.90625 -0.46875 -2.140625q0 -1.21875 0.46875 -2.109375q0.46875 -0.9062481 1.28125 -1.4218731q0.828125 -0.515625 1.90625 -0.515625q0.78125 0 1.375 0.265625q0.609375 0.265625 1.03125 0.75q0.421875 0.484375 0.640625 1.1874981q0.234375 0.6875 0.234375 1.578125q0 0.21875 -0.125 0.328125q-0.125 0.109375 -0.328125 0.109375l-5.78125 0l0 -0.71875l5.625 0l-0.265625 0.21875q0 -0.9375 -0.28125 -1.578125q-0.265625 -0.6562481 -0.796875 -0.9999981q-0.53125 -0.359375 -1.3125 -0.359375q-0.890625 0 -1.5 0.421875q-0.59375 0.40625 -0.90625 1.1249981q-0.296875 0.703125 -0.296875 1.625l0 0.078125q0 1.53125 0.75 2.359375q0.75 0.828125 2.109375 0.828125q0.59375 0 1.140625 -0.15625q0.546875 -0.171875 1.078125 -0.546875q0.171875 -0.109375 0.3125 -0.109375q0.15625 0 0.25 0.078125q0.109375 0.078125 0.140625 0.203125q0.046875 0.109375 -0.015625 0.25q-0.046875 0.140625 -0.203125 0.25q-0.515625 0.421875 -1.234375 0.640625q-0.71875 0.203125 -1.4375 0.203125zm8.744507 0q-1.078125 0 -1.84375 -0.546875q-0.765625 -0.5625 -1.046875 -1.515625l0.171875 -0.09375l0 1.625q0 0.25 -0.125 0.375q-0.125 0.125 -0.34375 0.125q-0.25 0 -0.375 -0.125q-0.125 -0.125 -0.125 -0.375l0 -10.468748q0 -0.265625 0.125 -0.375q0.125 -0.125 0.375 -0.125q0.21875 0 0.34375 0.125q0.125 0.109375 0.125 0.375l0 5.031248l-0.171875 0q0.28125 -0.9374981 1.046875 -1.4999981q0.765625 -0.5625 1.84375 -0.5625q1.0625 0 1.828125 0.5q0.765625 0.5 1.1875 1.3906231q0.4375 0.890625 0.4375 2.125q0 1.234375 -0.4375 2.140625q-0.421875 0.90625 -1.203125 1.390625q-0.765625 0.484375 -1.8125 0.484375zm-0.140625 -0.8125q0.78125 0 1.359375 -0.375q0.59375 -0.375 0.90625 -1.09375q0.328125 -0.71875 0.328125 -1.734375q0 -1.515625 -0.703125 -2.343748q-0.703125 -0.84375 -1.890625 -0.84375q-0.78125 0 -1.375 0.390625q-0.578125 0.375 -0.90625 1.0937481q-0.3125 0.703125 -0.3125 1.703125q0 1.53125 0.703125 2.375q0.703125 0.828125 1.890625 0.828125zm8.746887 0.8125q-1.09375 0 -1.8905945 -0.484375q-0.7969055 -0.5 -1.2500305 -1.390625q-0.4375 -0.90625 -0.4375 -2.140625q0 -0.90625 0.25 -1.640625q0.25 -0.7343731 0.71875 -1.2656231q0.46878052 -0.546875 1.1250305 -0.828125q0.6718445 -0.28125 1.4843445 -0.28125q1.09375 0 1.890625 0.5q0.8125 0.5 1.25 1.4062481q0.4375 0.890625 0.4375 2.109375q0 0.9375 -0.25 1.671875q-0.25 0.734375 -0.71875 1.265625q-0.46875 0.515625 -1.125 0.796875q-0.65625 0.28125 -1.484375 0.28125zm0 -0.8125q0.796875 0 1.375 -0.375q0.59375 -0.375 0.890625 -1.09375q0.3125 -0.71875 0.3125 -1.734375q0 -1.515625 -0.703125 -2.343748q-0.6875 -0.84375 -1.875 -0.84375q-0.796875 0 -1.3749695 0.390625q-0.578125 0.375 -0.890625 1.0937481q-0.31253052 0.703125 -0.31253052 1.703125q0 1.53125 0.7031555 2.375q0.7030945 0.828125 1.8749695 0.828125zm8.752014 0.8125q-1.09375 0 -1.890625 -0.484375q-0.796875 -0.5 -1.25 -1.390625q-0.4375 -0.90625 -0.4375 -2.140625q0 -0.90625 0.25 -1.640625q0.25 -0.7343731 0.71875 -1.2656231q0.46875 -0.546875 1.125 -0.828125q0.671875 -0.28125 1.484375 -0.28125q1.09375 0 1.890625 0.5q0.8125 0.5 1.25 1.4062481q0.4375 0.890625 0.4375 2.109375q0 0.9375 -0.25 1.671875q-0.25 0.734375 -0.71875 1.265625q-0.46875 0.515625 -1.125 0.796875q-0.65625 0.28125 -1.484375 0.28125zm0 -0.8125q0.796875 0 1.375 -0.375q0.59375 -0.375 0.890625 -1.09375q0.3125 -0.71875 0.3125 -1.734375q0 -1.515625 -0.703125 -2.343748q-0.6875 -0.84375 -1.875 -0.84375q-0.796875 0 -1.375 0.390625q-0.578125 0.375 -0.890625 1.0937481q-0.3125 0.703125 -0.3125 1.703125q0 1.53125 0.703125 2.375q0.703125 0.828125 1.875 0.828125zm6.158264 0.78125q-0.25 0 -0.375 -0.125q-0.125 -0.125 -0.125 -0.375l0 -10.468748q0 -0.265625 0.125 -0.375q0.125 -0.125 0.375 -0.125q0.21875 0 0.34375 0.125q0.125 0.109375 0.125 0.375l0 6.640623l0.03125 0l3.59375 -3.281248q0.171875 -0.171875 0.296875 -0.265625q0.140625 -0.09375 0.375 -0.09375q0.1875 0 0.296875 0.125q0.109375 0.109375 0.09375 0.265625q0 0.140625 -0.15625 0.3125l-3.8125 3.468748l0 -0.609375l4.15625 3.671875q0.1875 0.171875 0.1875 0.34375q0.015625 0.171875 -0.09375 0.28125q-0.109375 0.109375 -0.3125 0.109375q-0.203125 0 -0.34375 -0.09375q-0.140625 -0.078125 -0.359375 -0.265625l-3.921875 -3.46875l-0.03125 0l0 3.328125q0 0.5 -0.46875 0.5zm9.615295 0.03125q-0.71875 0 -1.4375 -0.1875q-0.71875 -0.1875 -1.34375 -0.65625q-0.140625 -0.078125 -0.1875 -0.203125q-0.03125 -0.125 -0.015625 -0.25q0.03125 -0.125 0.125 -0.203125q0.09375 -0.09375 0.21875 -0.109375q0.125 -0.015625 0.265625 0.078125q0.625 0.421875 1.21875 0.578125q0.59375 0.15625 1.1875 0.15625q0.96875 0 1.484375 -0.359375q0.515625 -0.375 0.515625 -1.0q0 -0.515625 -0.328125 -0.796875q-0.328125 -0.28125 -1.0625 -0.453125l-1.390625 -0.3125q-1.015625 -0.234375 -1.5 -0.734375q-0.46875 -0.5 -0.46875 -1.296875q0 -0.6874981 0.359375 -1.2031231q0.359375 -0.515625 1.015625 -0.796875q0.671875 -0.28125 1.53125 -0.28125q0.703125 0 1.34375 0.21875q0.640625 0.203125 1.125 0.625q0.125 0.109375 0.15625 0.234375q0.046875 0.125 0 0.25q-0.03125 0.109375 -0.125 0.203125q-0.09375 0.078125 -0.234375 0.078125q-0.125 0 -0.265625 -0.109375q-0.46875 -0.34375 -0.984375 -0.515625q-0.5 -0.171875 -1.03125 -0.171875q-0.921875 0 -1.4375 0.390625q-0.5 0.390625 -0.5 1.0468731q0 0.484375 0.3125 0.796875q0.3125 0.296875 0.984375 0.453125l1.390625 0.328125q1.046875 0.234375 1.546875 0.71875q0.515625 0.46875 0.515625 1.265625q0 1.015625 -0.8125 1.625q-0.796875 0.59375 -2.171875 0.59375z" fill-rule="nonzero"/><path fill="#d9ead3" d="m27.148294 79.36629l0 0c0 -3.9429016 3.19635 -7.1392517 7.13925 -7.1392517l120.934105 0c1.8934326 0 3.7093353 0.75216675 5.0482025 2.091034c1.3388672 1.3388748 2.091034 3.15477 2.091034 5.048218l0 28.556145c0 3.942894 -3.19635 7.139244 -7.1392365 7.139244l-120.934105 0c-3.9428997 0 -7.13925 -3.19635 -7.13925 -7.139244z" fill-rule="evenodd"/><path stroke="#000000" stroke-width="1.0" stroke-linejoin="round" stroke-linecap="butt" stroke-dasharray="1.0,3.0" d="m27.148294 79.36629l0 0c0 -3.9429016 3.19635 -7.1392517 7.13925 -7.1392517l120.934105 0c1.8934326 0 3.7093353 0.75216675 5.0482025 2.091034c1.3388672 1.3388748 2.091034 3.15477 2.091034 5.048218l0 28.556145c0 3.942894 -3.19635 7.139244 -7.1392365 7.139244l-120.934105 0c-3.9428997 0 -7.13925 -3.19635 -7.13925 -7.139244z" fill-rule="evenodd"/><path fill="#000000" d="m65.49764 89.72436q-0.234375 0 -0.375 -0.125q-0.125 -0.140625 -0.125 -0.390625l0 -9.296875q0 -0.25 0.125 -0.375q0.140625 -0.140625 0.375 -0.140625l2.828125 0q2.46875 0 3.796875 1.328125q1.34375 1.3125 1.34375 3.828125q0 1.265625 -0.34375 2.234375q-0.34375 0.953125 -1.0 1.609375q-0.65625 0.65625 -1.609375 1.0q-0.953125 0.328125 -2.1875 0.328125l-2.828125 0zm0.40625 -0.796875l2.359375 0q1.0625 0 1.859375 -0.265625q0.796875 -0.28125 1.328125 -0.828125q0.53125 -0.546875 0.796875 -1.375q0.265625 -0.828125 0.265625 -1.90625q0 -2.1875 -1.0625 -3.28125q-1.0625 -1.09375 -3.1875 -1.09375l-2.359375 0l0 8.75zm12.7586975 0.921875q-1.09375 0 -1.890625 -0.4375q-0.796875 -0.453125 -1.21875 -1.265625q-0.421875 -0.828125 -0.421875 -1.953125q0 -1.109375 0.421875 -1.9375q0.421875 -0.828125 1.171875 -1.296875q0.765625 -0.46875 1.75 -0.46875q0.71875 0 1.265625 0.25q0.546875 0.234375 0.9375 0.6875q0.390625 0.4375 0.59375 1.078125q0.203125 0.625 0.203125 1.4375q0 0.203125 -0.109375 0.3125q-0.109375 0.09375 -0.296875 0.09375l-5.296875 0l0 -0.65625l5.140625 0l-0.234375 0.1875q0 -0.84375 -0.25 -1.4375q-0.234375 -0.59375 -0.734375 -0.90625q-0.484375 -0.328125 -1.203125 -0.328125q-0.8125 0 -1.375 0.375q-0.546875 0.359375 -0.828125 1.015625q-0.28125 0.65625 -0.28125 1.5l0 0.078125q0 1.40625 0.6875 2.171875q0.6875 0.75 1.9375 0.75q0.546875 0 1.046875 -0.140625q0.515625 -0.15625 0.984375 -0.515625q0.15625 -0.09375 0.296875 -0.09375q0.140625 0 0.234375 0.078125q0.09375 0.0625 0.125 0.171875q0.046875 0.109375 -0.015625 0.234375q-0.046875 0.125 -0.1875 0.234375q-0.46875 0.375 -1.140625 0.578125q-0.65625 0.203125 -1.3125 0.203125zm5.427002 -0.03125q-0.21875 0 -0.34375 -0.109375q-0.109375 -0.125 -0.109375 -0.34375l0 -6.03125l-1.046875 0q-0.1875 0 -0.296875 -0.09375q-0.109375 -0.09375 -0.109375 -0.265625q0 -0.171875 0.109375 -0.265625q0.109375 -0.09375 0.296875 -0.09375l1.28125 0l-0.234375 0.234375l0 -0.578125q0 -1.328125 0.625 -2.046875q0.625 -0.71875 1.890625 -0.8125l0.4375 -0.03125q0.15625 -0.03125 0.265625 0.03125q0.109375 0.0625 0.125 0.171875q0.03125 0.109375 0 0.234375q-0.015625 0.109375 -0.09375 0.203125q-0.078125 0.078125 -0.171875 0.078125l-0.46875 0.03125q-0.921875 0.046875 -1.328125 0.578125q-0.390625 0.53125 -0.390625 1.484375l0 0.625l-0.140625 -0.203125l3.953125 0q0.203125 0 0.3125 0.125q0.125 0.109375 0.125 0.34375l0 6.21875q0 0.21875 -0.109375 0.359375q-0.109375 0.125 -0.328125 0.125q-0.21875 0 -0.34375 -0.125q-0.109375 -0.140625 -0.109375 -0.359375l0 -5.96875l-3.359375 0l0 6.03125q0 0.453125 -0.4375 0.453125zm4.25 -9.03125q-0.296875 0 -0.46875 -0.15625q-0.171875 -0.171875 -0.171875 -0.46875q0 -0.28125 0.171875 -0.4375q0.171875 -0.15625 0.46875 -0.15625q0.296875 0 0.46875 0.15625q0.171875 0.15625 0.171875 0.4375q0 0.296875 -0.171875 0.46875q-0.171875 0.15625 -0.46875 0.15625zm3.2473755 9.03125q-0.21875 0 -0.34375 -0.109375q-0.109375 -0.125 -0.109375 -0.34375l0 -6.375q0 -0.234375 0.109375 -0.34375q0.125 -0.125 0.34375 -0.125q0.203125 0 0.3125 0.125q0.109375 0.109375 0.109375 0.34375l0 1.375l-0.15625 -0.09375q0.296875 -0.875 1.0 -1.328125q0.71875 -0.453125 1.640625 -0.453125q0.84375 0 1.40625 0.296875q0.5625 0.296875 0.84375 0.921875q0.28125 0.609375 0.28125 1.53125l0 4.125q0 0.21875 -0.125 0.34375q-0.109375 0.109375 -0.3125 0.109375q-0.21875 0 -0.34375 -0.109375q-0.109375 -0.125 -0.109375 -0.34375l0 -4.046875q0 -1.078125 -0.4375 -1.5625q-0.421875 -0.5 -1.34375 -0.5q-1.046875 0 -1.6875 0.65625q-0.640625 0.65625 -0.640625 1.75l0 3.703125q0 0.453125 -0.4375 0.453125zm8.207535 -0.03125q-0.21875 0 -0.34375 -0.125q-0.109375 -0.140625 -0.109375 -0.359375l0 -6.28125q0 -0.234375 0.109375 -0.34375q0.125 -0.125 0.34375 -0.125q0.203125 0 0.3125 0.125q0.125 0.109375 0.125 0.34375l0 6.28125q0 0.21875 -0.109375 0.359375q-0.109375 0.125 -0.328125 0.125zm0 -9.0q-0.3125 0 -0.484375 -0.15625q-0.15625 -0.171875 -0.15625 -0.46875q0 -0.28125 0.15625 -0.4375q0.171875 -0.15625 0.484375 -0.15625q0.3125 0 0.46875 0.15625q0.171875 0.15625 0.171875 0.4375q0 0.296875 -0.171875 0.46875q-0.15625 0.15625 -0.46875 0.15625zm5.4880676 9.0625q-0.796875 0 -1.328125 -0.296875q-0.515625 -0.296875 -0.78125 -0.84375q-0.265625 -0.546875 -0.265625 -1.359375l0 -4.015625l-1.09375 0q-0.1875 0 -0.3125 -0.09375q-0.109375 -0.09375 -0.109375 -0.265625q0 -0.171875 0.109375 -0.265625q0.125 -0.09375 0.3125 -0.09375l1.09375 0l0 -1.828125q0 -0.234375 0.109375 -0.34375q0.125 -0.109375 0.34375 -0.109375q0.203125 0 0.3125 0.109375q0.125 0.109375 0.125 0.34375l0 1.828125l1.984375 0q0.203125 0 0.296875 0.09375q0.109375 0.09375 0.109375 0.265625q0 0.171875 -0.109375 0.265625q-0.09375 0.09375 -0.296875 0.09375l-1.984375 0l0 3.90625q0 0.890625 0.359375 1.359375q0.375 0.46875 1.21875 0.46875q0.296875 0 0.484375 -0.0625q0.203125 -0.078125 0.34375 -0.078125q0.09375 0 0.171875 0.09375q0.09375 0.09375 0.09375 0.28125q0 0.109375 -0.0625 0.234375q-0.046875 0.109375 -0.171875 0.140625q-0.171875 0.0625 -0.453125 0.109375q-0.265625 0.0625 -0.5 0.0625zm2.7194977 -0.0625q-0.21875 0 -0.34375 -0.125q-0.109375 -0.140625 -0.109375 -0.359375l0 -6.28125q0 -0.234375 0.109375 -0.34375q0.125 -0.125 0.34375 -0.125q0.203125 0 0.3125 0.125q0.125 0.109375 0.125 0.34375l0 6.28125q0 0.21875 -0.109375 0.359375q-0.109375 0.125 -0.328125 0.125zm0 -9.0q-0.3125 0 -0.484375 -0.15625q-0.15625 -0.171875 -0.15625 -0.46875q0 -0.28125 0.15625 -0.4375q0.171875 -0.15625 0.484375 -0.15625q0.3125 0 0.46875 0.15625q0.171875 0.15625 0.171875 0.4375q0 0.296875 -0.171875 0.46875q-0.15625 0.15625 -0.46875 0.15625zm5.6286926 9.0625q-1.0 0 -1.734375 -0.453125q-0.734375 -0.46875 -1.140625 -1.28125q-0.390625 -0.828125 -0.390625 -1.953125q0 -0.828125 0.21875 -1.5q0.234375 -0.6875 0.65625 -1.171875q0.4375 -0.5 1.046875 -0.75q0.609375 -0.25 1.34375 -0.25q1.015625 0 1.75 0.453125q0.734375 0.453125 1.125 1.28125q0.40625 0.828125 0.40625 1.9375q0 0.84375 -0.234375 1.53125q-0.21875 0.671875 -0.65625 1.15625q-0.421875 0.484375 -1.03125 0.75q-0.59375 0.25 -1.359375 0.25zm0 -0.75q0.734375 0 1.265625 -0.34375q0.53125 -0.34375 0.8125 -1.0q0.296875 -0.671875 0.296875 -1.59375q0 -1.390625 -0.640625 -2.15625q-0.640625 -0.765625 -1.734375 -0.765625q-0.71875 0 -1.25 0.34375q-0.53125 0.34375 -0.828125 1.0q-0.28125 0.65625 -0.28125 1.578125q0 1.40625 0.640625 2.171875q0.65625 0.765625 1.71875 0.765625zm5.6419983 0.71875q-0.21875 0 -0.34375 -0.109375q-0.109375 -0.125 -0.109375 -0.34375l0 -6.375q0 -0.234375 0.109375 -0.34375q0.125 -0.125 0.34375 -0.125q0.203125 0 0.3125 0.125q0.109375 0.109375 0.109375 0.34375l0 1.375l-0.15625 -0.09375q0.296875 -0.875 1.0 -1.328125q0.71875 -0.453125 1.640625 -0.453125q0.84375 0 1.40625 0.296875q0.5625 0.296875 0.84375 0.921875q0.28125 0.609375 0.28125 1.53125l0 4.125q0 0.21875 -0.125 0.34375q-0.109375 0.109375 -0.3125 0.109375q-0.21875 0 -0.34375 -0.109375q-0.109375 -0.125 -0.109375 -0.34375l0 -4.046875q0 -1.078125 -0.4375 -1.5625q-0.421875 -0.5 -1.34375 -0.5q-1.046875 0 -1.6875 0.65625q-0.640625 0.65625 -0.640625 1.75l0 3.703125q0 0.453125 -0.4375 0.453125z" fill-rule="nonzero"/><path fill="#000000" d="m65.18991 107.72436q-0.234375 0 -0.375 -0.125q-0.125 -0.140625 -0.125 -0.390625l0 -9.296875q0 -0.25 0.125 -0.375q0.140625 -0.140625 0.375 -0.140625l5.546875 0q0.203125 0 0.296875 0.109375q0.109375 0.09375 0.109375 0.265625q0 0.203125 -0.109375 0.296875q-0.09375 0.09375 -0.296875 0.09375l-5.15625 0l0 3.9375l4.859375 0q0.203125 0 0.296875 0.09375q0.109375 0.09375 0.109375 0.28125q0 0.1875 -0.109375 0.296875q-0.09375 0.109375 -0.296875 0.109375l-4.859375 0l0 4.0625l5.15625 0q0.203125 0 0.296875 0.09375q0.109375 0.09375 0.109375 0.296875q0 0.1875 -0.109375 0.296875q-0.09375 0.09375 -0.296875 0.09375l-5.546875 0zm7.613907 0.109375q-0.15625 0 -0.265625 -0.09375q-0.109375 -0.09375 -0.125 -0.234375q0 -0.15625 0.15625 -0.359375l2.65625 -3.328125l0 0.484375l-2.484375 -3.109375q-0.15625 -0.203125 -0.140625 -0.34375q0.015625 -0.15625 0.125 -0.234375q0.109375 -0.09375 0.234375 -0.09375q0.171875 0 0.28125 0.0625q0.125 0.0625 0.234375 0.203125l2.25 2.84375l-0.3125 0l2.265625 -2.84375q0.109375 -0.140625 0.21875 -0.203125q0.125 -0.0625 0.28125 -0.0625q0.140625 0 0.25 0.09375q0.109375 0.09375 0.109375 0.234375q0.015625 0.140625 -0.140625 0.34375l-2.46875 3.078125l0 -0.421875l2.640625 3.296875q0.15625 0.203125 0.140625 0.34375q0 0.140625 -0.109375 0.234375q-0.109375 0.109375 -0.265625 0.109375q-0.15625 0 -0.28125 -0.078125q-0.125 -0.078125 -0.234375 -0.203125l-2.40625 -3.03125l0.3125 0l-2.40625 3.03125q-0.109375 0.125 -0.234375 0.203125q-0.125 0.078125 -0.28125 0.078125zm10.636673 0.015625q-1.09375 0 -1.890625 -0.4375q-0.796875 -0.453125 -1.21875 -1.265625q-0.421875 -0.828125 -0.421875 -1.953125q0 -1.109375 0.421875 -1.9375q0.421875 -0.828125 1.171875 -1.296875q0.765625 -0.46875 1.75 -0.46875q0.71875 0 1.265625 0.25q0.546875 0.234375 0.9375 0.6875q0.390625 0.4375 0.59375 1.078125q0.203125 0.625 0.203125 1.4375q0 0.203125 -0.109375 0.3125q-0.109375 0.09375 -0.296875 0.09375l-5.296875 0l0 -0.65625l5.140625 0l-0.234375 0.1875q0 -0.84375 -0.25 -1.4375q-0.234375 -0.59375 -0.734375 -0.90625q-0.484375 -0.328125 -1.203125 -0.328125q-0.8125 0 -1.375 0.375q-0.546875 0.359375 -0.828125 1.015625q-0.28125 0.65625 -0.28125 1.5l0 0.078125q0 1.40625 0.6875 2.171875q0.6875 0.75 1.9375 0.75q0.546875 0 1.046875 -0.140625q0.515625 -0.15625 0.984375 -0.515625q0.15625 -0.09375 0.296875 -0.09375q0.140625 0 0.234375 0.078125q0.09375 0.0625 0.125 0.171875q0.046875 0.109375 -0.015625 0.234375q-0.046875 0.125 -0.1875 0.234375q-0.46875 0.375 -1.140625 0.578125q-0.65625 0.203125 -1.3125 0.203125zm7.536377 0q-1.046875 0 -1.796875 -0.46875q-0.75 -0.46875 -1.15625 -1.296875q-0.390625 -0.84375 -0.390625 -1.96875q0 -0.84375 0.21875 -1.515625q0.234375 -0.671875 0.65625 -1.140625q0.4375 -0.46875 1.0625 -0.71875q0.625 -0.25 1.40625 -0.25q0.53125 0 1.109375 0.1875q0.578125 0.171875 1.046875 0.59375q0.09375 0.09375 0.12500763 0.21875q0.03125 0.109375 -0.015625 0.21875q-0.04688263 0.109375 -0.14063263 0.171875q-0.078125 0.0625 -0.203125 0.078125q-0.125 0 -0.25 -0.109375q-0.421875 -0.34375 -0.84375 -0.46875q-0.40625 -0.125 -0.796875 -0.125q-0.609375 0 -1.0625 0.203125q-0.453125 0.1875 -0.765625 0.5625q-0.3125 0.359375 -0.484375 0.890625q-0.15625 0.53125 -0.15625 1.21875q0 1.375 0.640625 2.171875q0.640625 0.78125 1.828125 0.78125q0.390625 0 0.796875 -0.125q0.421875 -0.125 0.84375 -0.46875q0.125 -0.109375 0.25 -0.09375q0.125 0 0.203125 0.0625q0.09375 0.0625 0.125 0.171875q0.04688263 0.109375 0.01563263 0.234375q-0.03125763 0.109375 -0.12500763 0.203125q-0.453125 0.421875 -1.03125 0.609375q-0.578125 0.171875 -1.109375 0.171875zm6.321007 0q-0.84375 0 -1.40625 -0.3125q-0.5625 -0.3125 -0.84375 -0.921875q-0.28125 -0.625 -0.28125 -1.53125l0 -4.09375q0 -0.234375 0.109375 -0.34375q0.125 -0.125 0.34375 -0.125q0.203125 0 0.3125 0.125q0.125 0.109375 0.125 0.34375l0 4.046875q0 1.03125 0.421875 1.546875q0.4375 0.5 1.34375 0.5q1.0 0 1.609375 -0.671875q0.625 -0.671875 0.625 -1.75l0 -3.671875q0 -0.234375 0.109375 -0.34375q0.125 -0.125 0.34375 -0.125q0.203125 0 0.3125 0.125q0.125 0.109375 0.125 0.34375l0 6.375q0 0.453125 -0.421875 0.453125q-0.21875 0 -0.34375 -0.109375q-0.109375 -0.125 -0.109375 -0.34375l0 -1.453125l0.1875 0.09375q-0.28125 0.890625 -0.96875 1.375q-0.6875 0.46875 -1.59375 0.46875zm8.292435 0q-0.796875 0 -1.328125 -0.296875q-0.515625 -0.296875 -0.78125 -0.84375q-0.265625 -0.546875 -0.265625 -1.359375l0 -4.015625l-1.09375 0q-0.1875 0 -0.3125 -0.09375q-0.109375 -0.09375 -0.109375 -0.265625q0 -0.171875 0.109375 -0.265625q0.125 -0.09375 0.3125 -0.09375l1.09375 0l0 -1.828125q0 -0.234375 0.109375 -0.34375q0.125 -0.109375 0.34375 -0.109375q0.203125 0 0.3125 0.109375q0.125 0.109375 0.125 0.34375l0 1.828125l1.984375 0q0.203125 0 0.296875 0.09375q0.109375 0.09375 0.109375 0.265625q0 0.171875 -0.109375 0.265625q-0.09375 0.09375 -0.296875 0.09375l-1.984375 0l0 3.90625q0 0.890625 0.359375 1.359375q0.375 0.46875 1.21875 0.46875q0.296875 0 0.484375 -0.0625q0.203125 -0.078125 0.34375 -0.078125q0.09375 0 0.171875 0.09375q0.09375 0.09375 0.09375 0.28125q0 0.109375 -0.0625 0.234375q-0.046875 0.109375 -0.171875 0.140625q-0.171875 0.0625 -0.453125 0.109375q-0.265625 0.0625 -0.5 0.0625zm2.7194977 -0.0625q-0.21875 0 -0.34375 -0.125q-0.109375 -0.140625 -0.109375 -0.359375l0 -6.28125q0 -0.234375 0.109375 -0.34375q0.125 -0.125 0.34375 -0.125q0.203125 0 0.3125 0.125q0.125 0.109375 0.125 0.34375l0 6.28125q0 0.21875 -0.109375 0.359375q-0.109375 0.125 -0.328125 0.125zm0 -9.0q-0.3125 0 -0.484375 -0.15625q-0.15625 -0.171875 -0.15625 -0.46875q0 -0.28125 0.15625 -0.4375q0.171875 -0.15625 0.484375 -0.15625q0.3125 0 0.46875 0.15625q0.171875 0.15625 0.171875 0.4375q0 0.296875 -0.171875 0.46875q-0.15625 0.15625 -0.46875 0.15625zm5.6286926 9.0625q-1.0 0 -1.734375 -0.453125q-0.734375 -0.46875 -1.140625 -1.28125q-0.390625 -0.828125 -0.390625 -1.953125q0 -0.828125 0.21875 -1.5q0.234375 -0.6875 0.65625 -1.171875q0.4375 -0.5 1.046875 -0.75q0.609375 -0.25 1.34375 -0.25q1.015625 0 1.75 0.453125q0.734375 0.453125 1.125 1.28125q0.40625 0.828125 0.40625 1.9375q0 0.84375 -0.234375 1.53125q-0.21875 0.671875 -0.65625 1.15625q-0.421875 0.484375 -1.03125 0.75q-0.59375 0.25 -1.359375 0.25zm0 -0.75q0.734375 0 1.265625 -0.34375q0.53125 -0.34375 0.8125 -1.0q0.296875 -0.671875 0.296875 -1.59375q0 -1.390625 -0.640625 -2.15625q-0.640625 -0.765625 -1.734375 -0.765625q-0.71875 0 -1.25 0.34375q-0.53125 0.34375 -0.828125 1.0q-0.28125 0.65625 -0.28125 1.578125q0 1.40625 0.640625 2.171875q0.65625 0.765625 1.71875 0.765625zm5.6419983 0.71875q-0.21875 0 -0.34375 -0.109375q-0.109375 -0.125 -0.109375 -0.34375l0 -6.375q0 -0.234375 0.109375 -0.34375q0.125 -0.125 0.34375 -0.125q0.203125 0 0.3125 0.125q0.109375 0.109375 0.109375 0.34375l0 1.375l-0.15625 -0.09375q0.296875 -0.875 1.0 -1.328125q0.71875 -0.453125 1.640625 -0.453125q0.84375 0 1.40625 0.296875q0.5625 0.296875 0.84375 0.921875q0.28125 0.609375 0.28125 1.53125l0 4.125q0 0.21875 -0.125 0.34375q-0.109375 0.109375 -0.3125 0.109375q-0.21875 0 -0.34375 -0.109375q-0.109375 -0.125 -0.109375 -0.34375l0 -4.046875q0 -1.078125 -0.4375 -1.5625q-0.421875 -0.5 -1.34375 -0.5q-1.046875 0 -1.6875 0.65625q-0.640625 0.65625 -0.640625 1.75l0 3.703125q0 0.453125 -0.4375 0.453125z" fill-rule="nonzero"/><path fill="#d9ead3" d="m213.69423 79.36629l0 0c0 -3.9429016 3.19635 -7.1392517 7.1392517 -7.1392517l120.9341 0c1.8934326 0 3.7093506 0.75216675 5.048218 2.091034c1.3388672 1.3388748 2.091034 3.15477 2.091034 5.048218l0 28.556145c0 3.942894 -3.19635 7.139244 -7.1392517 7.139244l-120.9341 0c-3.9429016 0 -7.1392517 -3.19635 -7.1392517 -7.139244z" fill-rule="evenodd"/><path stroke="#000000" stroke-width="1.0" stroke-linejoin="round" stroke-linecap="butt" stroke-dasharray="1.0,3.0" d="m213.69423 79.36629l0 0c0 -3.9429016 3.19635 -7.1392517 7.1392517 -7.1392517l120.9341 0c1.8934326 0 3.7093506 0.75216675 5.048218 2.091034c1.3388672 1.3388748 2.091034 3.15477 2.091034 5.048218l0 28.556145c0 3.942894 -3.19635 7.139244 -7.1392517 7.139244l-120.9341 0c-3.9429016 0 -7.1392517 -3.19635 -7.1392517 -7.139244z" fill-rule="evenodd"/><path fill="#000000" d="m259.2252 89.72436q-0.234375 0 -0.375 -0.125q-0.125 -0.140625 -0.125 -0.390625l0 -9.296875q0 -0.25 0.125 -0.375q0.140625 -0.140625 0.375 -0.140625l3.453125 0q1.0625 0 1.796875 0.3125q0.734375 0.3125 1.125 0.921875q0.40625 0.59375 0.40625 1.46875q0 0.96875 -0.59375 1.625q-0.578125 0.640625 -1.546875 0.84375l0 -0.203125q1.09375 0.109375 1.734375 0.78125q0.640625 0.671875 0.640625 1.765625q0 1.375 -0.890625 2.09375q-0.875 0.71875 -2.484375 0.71875l-3.640625 0zm0.390625 -0.765625l3.171875 0q1.28125 0 1.90625 -0.5q0.625 -0.5 0.625 -1.53125q0 -1.0625 -0.625 -1.546875q-0.625 -0.5 -1.90625 -0.5l-3.171875 0l0 4.078125zm0 -4.84375l2.953125 0q1.234375 0 1.875 -0.5q0.640625 -0.515625 0.640625 -1.484375q0 -0.96875 -0.640625 -1.46875q-0.640625 -0.515625 -1.875 -0.515625l-2.953125 0l0 3.96875zm10.975006 5.734375q-0.71875 0 -1.28125 -0.28125q-0.5625 -0.28125 -0.90625 -0.765625q-0.328125 -0.484375 -0.328125 -1.09375q0 -0.78125 0.390625 -1.234375q0.40625 -0.453125 1.34375 -0.640625q0.9375 -0.1875 2.578125 -0.1875l0.625 0l0 0.65625l-0.609375 0q-1.3125 0 -2.0625 0.125q-0.734375 0.109375 -1.03125 0.40625q-0.296875 0.28125 -0.296875 0.8125q0 0.65625 0.453125 1.078125q0.46875 0.40625 1.234375 0.40625q0.640625 0 1.109375 -0.296875q0.484375 -0.3125 0.75 -0.828125q0.28125 -0.53125 0.28125 -1.21875l0 -1.671875q0 -0.96875 -0.390625 -1.421875q-0.390625 -0.453125 -1.265625 -0.453125q-0.546875 0 -1.078125 0.15625q-0.515625 0.140625 -1.109375 0.46875q-0.15625 0.078125 -0.28125 0.0625q-0.125 -0.03125 -0.1875 -0.125q-0.0625 -0.09375 -0.09375 -0.21875q-0.015625 -0.125 0.03125 -0.234375q0.0625 -0.125 0.21875 -0.1875q0.609375 -0.34375 1.25 -0.5q0.640625 -0.171875 1.234375 -0.171875q0.875 0 1.4375 0.296875q0.5625 0.28125 0.828125 0.875q0.28125 0.578125 0.28125 1.5l0 4.203125q0 0.21875 -0.109375 0.34375q-0.109375 0.109375 -0.3125 0.109375q-0.203125 0 -0.328125 -0.109375q-0.109375 -0.125 -0.109375 -0.34375l0 -1.359375l0.15625 0q-0.140625 0.578125 -0.484375 0.984375q-0.328125 0.40625 -0.828125 0.640625q-0.5 0.21875 -1.109375 0.21875zm8.353699 0q-1.046875 0 -1.796875 -0.46875q-0.75 -0.46875 -1.15625 -1.296875q-0.390625 -0.84375 -0.390625 -1.96875q0 -0.84375 0.21875 -1.515625q0.234375 -0.671875 0.65625 -1.140625q0.4375 -0.46875 1.0625 -0.71875q0.625 -0.25 1.40625 -0.25q0.53125 0 1.109375 0.1875q0.578125 0.171875 1.046875 0.59375q0.09375 0.09375 0.125 0.21875q0.03125 0.109375 -0.015625 0.21875q-0.046875 0.109375 -0.140625 0.171875q-0.078125 0.0625 -0.203125 0.078125q-0.125 0 -0.25 -0.109375q-0.421875 -0.34375 -0.84375 -0.46875q-0.40625 -0.125 -0.796875 -0.125q-0.609375 0 -1.0625 0.203125q-0.453125 0.1875 -0.765625 0.5625q-0.3125 0.359375 -0.484375 0.890625q-0.15625 0.53125 -0.15625 1.21875q0 1.375 0.640625 2.171875q0.640625 0.78125 1.828125 0.78125q0.390625 0 0.796875 -0.125q0.421875 -0.125 0.84375 -0.46875q0.125 -0.109375 0.25 -0.09375q0.125 0 0.203125 0.0625q0.09375 0.0625 0.125 0.171875q0.046875 0.109375 0.015625 0.234375q-0.03125 0.109375 -0.125 0.203125q-0.453125 0.421875 -1.03125 0.609375q-0.578125 0.171875 -1.109375 0.171875zm4.2741394 -0.03125q-0.21875 0 -0.34375 -0.109375q-0.109375 -0.125 -0.109375 -0.34375l0 -9.609375q0 -0.234375 0.109375 -0.34375q0.125 -0.109375 0.34375 -0.109375q0.203125 0 0.3125 0.109375q0.125 0.109375 0.125 0.34375l0 6.078125l0.03125 0l3.28125 -3.0q0.171875 -0.140625 0.296875 -0.21875q0.125 -0.09375 0.328125 -0.09375q0.171875 0 0.265625 0.109375q0.109375 0.09375 0.09375 0.234375q0 0.125 -0.140625 0.296875l-3.5 3.171875l0 -0.5625l3.796875 3.359375q0.1875 0.171875 0.1875 0.328125q0.015625 0.140625 -0.09375 0.25q-0.109375 0.109375 -0.28125 0.109375q-0.1875 0 -0.328125 -0.09375q-0.125 -0.078125 -0.3125 -0.25l-3.59375 -3.171875l-0.03125 0l0 3.0625q0 0.453125 -0.4375 0.453125zm9.140533 0.03125q-0.84375 0 -1.40625 -0.3125q-0.5625 -0.3125 -0.84375 -0.921875q-0.28125 -0.625 -0.28125 -1.53125l0 -4.09375q0 -0.234375 0.109375 -0.34375q0.125 -0.125 0.34375 -0.125q0.203125 0 0.3125 0.125q0.125 0.109375 0.125 0.34375l0 4.046875q0 1.03125 0.421875 1.546875q0.4375 0.5 1.34375 0.5q1.0 0 1.609375 -0.671875q0.625 -0.671875 0.625 -1.75l0 -3.671875q0 -0.234375 0.109375 -0.34375q0.125 -0.125 0.34375 -0.125q0.203125 0 0.3125 0.125q0.125 0.109375 0.125 0.34375l0 6.375q0 0.453125 -0.421875 0.453125q-0.21875 0 -0.34375 -0.109375q-0.109375 -0.125 -0.109375 -0.34375l0 -1.453125l0.1875 0.09375q-0.28125 0.890625 -0.96875 1.375q-0.6875 0.46875 -1.59375 0.46875zm6.0580444 2.59375q-0.21875 0 -0.34375 -0.125q-0.109375 -0.109375 -0.109375 -0.328125l0 -9.0q0 -0.234375 0.109375 -0.34375q0.125 -0.125 0.34375 -0.125q0.203125 0 0.3125 0.125q0.125 0.109375 0.125 0.34375l0 1.484375l-0.15625 -0.078125q0.25 -0.890625 0.953125 -1.390625q0.703125 -0.515625 1.703125 -0.515625q0.953125 0 1.65625 0.453125q0.71875 0.453125 1.09375 1.28125q0.390625 0.8125 0.390625 1.9375q0 1.125 -0.390625 1.953125q-0.375 0.828125 -1.078125 1.28125q-0.703125 0.453125 -1.671875 0.453125q-1.0 0 -1.703125 -0.515625q-0.703125 -0.515625 -0.953125 -1.375l0.15625 0l0 4.03125q0 0.21875 -0.125 0.328125q-0.109375 0.125 -0.3125 0.125zm2.796875 -3.34375q0.71875 0 1.25 -0.34375q0.546875 -0.34375 0.828125 -1.0q0.296875 -0.671875 0.296875 -1.59375q0 -1.390625 -0.640625 -2.15625q-0.640625 -0.765625 -1.734375 -0.765625q-0.71875 0 -1.25 0.34375q-0.53125 0.34375 -0.828125 1.0q-0.296875 0.65625 -0.296875 1.578125q0 1.40625 0.640625 2.171875q0.65625 0.765625 1.734375 0.765625z" fill-rule="nonzero"/><path fill="#000000" d="m261.0289 107.84936q-0.703125 0 -1.375 -0.125q-0.65625 -0.125 -1.21875 -0.359375q-0.5625 -0.234375 -1.015625 -0.59375q-0.140625 -0.109375 -0.203125 -0.234375q-0.046875 -0.140625 -0.015625 -0.265625q0.046875 -0.125 0.140625 -0.21875q0.09375 -0.09375 0.21875 -0.09375q0.140625 0 0.28125 0.09375q0.671875 0.5 1.421875 0.734375q0.765625 0.234375 1.765625 0.234375q1.390625 0 2.078125 -0.53125q0.703125 -0.546875 0.703125 -1.4375q0 -0.734375 -0.515625 -1.140625q-0.5 -0.40625 -1.65625 -0.640625l-1.484375 -0.3125q-1.390625 -0.28125 -2.0625 -0.9375q-0.671875 -0.65625 -0.671875 -1.75q0 -0.6875 0.265625 -1.234375q0.265625 -0.546875 0.75 -0.9375q0.484375 -0.40625 1.140625 -0.609375q0.671875 -0.21875 1.484375 -0.21875q0.953125 0 1.75 0.265625q0.796875 0.265625 1.453125 0.84375q0.125 0.09375 0.171875 0.234375q0.046875 0.140625 0 0.265625q-0.046875 0.125 -0.140625 0.203125q-0.078125 0.0625 -0.21875 0.078125q-0.125 0 -0.265625 -0.109375q-0.625 -0.5 -1.296875 -0.71875q-0.65625 -0.234375 -1.453125 -0.234375q-0.828125 0 -1.4375 0.265625q-0.609375 0.25 -0.953125 0.734375q-0.328125 0.484375 -0.328125 1.15625q0 0.75 0.46875 1.21875q0.46875 0.453125 1.515625 0.65625l1.484375 0.296875q1.484375 0.3125 2.203125 0.921875q0.71875 0.609375 0.71875 1.65625q0 0.640625 -0.265625 1.15625q-0.25 0.515625 -0.734375 0.90625q-0.484375 0.375 -1.171875 0.578125q-0.671875 0.203125 -1.53125 0.203125zm5.9432373 -0.03125q-0.21875 0 -0.34375 -0.109375q-0.109375 -0.125 -0.109375 -0.34375l0 -9.609375q0 -0.234375 0.109375 -0.34375q0.125 -0.109375 0.34375 -0.109375q0.203125 0 0.3125 0.109375q0.125 0.109375 0.125 0.34375l0 4.515625l-0.171875 0q0.296875 -0.875 1.0 -1.328125q0.71875 -0.453125 1.640625 -0.453125q0.84375 0 1.40625 0.3125q0.5625 0.296875 0.84375 0.921875q0.28125 0.609375 0.28125 1.515625l0 4.125q0 0.21875 -0.125 0.34375q-0.109375 0.109375 -0.3125 0.109375q-0.21875 0 -0.34375 -0.109375q-0.109375 -0.125 -0.109375 -0.34375l0 -4.046875q0 -1.078125 -0.4375 -1.5625q-0.421875 -0.5 -1.34375 -0.5q-1.046875 0 -1.6875 0.65625q-0.640625 0.65625 -0.640625 1.75l0 3.703125q0 0.453125 -0.4375 0.453125zm9.95755 0.03125q-0.71875 0 -1.28125 -0.28125q-0.5625 -0.28125 -0.90625 -0.765625q-0.328125 -0.484375 -0.328125 -1.09375q0 -0.78125 0.390625 -1.234375q0.40625 -0.453125 1.34375 -0.640625q0.9375 -0.1875 2.578125 -0.1875l0.625 0l0 0.65625l-0.609375 0q-1.3125 0 -2.0625 0.125q-0.734375 0.109375 -1.03125 0.40625q-0.296875 0.28125 -0.296875 0.8125q0 0.65625 0.453125 1.078125q0.46875 0.40625 1.234375 0.40625q0.640625 0 1.109375 -0.296875q0.484375 -0.3125 0.75 -0.828125q0.28125 -0.53125 0.28125 -1.21875l0 -1.671875q0 -0.96875 -0.390625 -1.421875q-0.390625 -0.453125 -1.265625 -0.453125q-0.546875 0 -1.078125 0.15625q-0.515625 0.140625 -1.109375 0.46875q-0.15625 0.078125 -0.28125 0.0625q-0.125 -0.03125 -0.1875 -0.125q-0.0625 -0.09375 -0.09375 -0.21875q-0.015625 -0.125 0.03125 -0.234375q0.0625 -0.125 0.21875 -0.1875q0.609375 -0.34375 1.25 -0.5q0.640625 -0.171875 1.234375 -0.171875q0.875 0 1.4375 0.296875q0.5625 0.28125 0.828125 0.875q0.28125 0.578125 0.28125 1.5l0 4.203125q0 0.21875 -0.109375 0.34375q-0.109375 0.109375 -0.3125 0.109375q-0.203125 0 -0.328125 -0.109375q-0.109375 -0.125 -0.109375 -0.34375l0 -1.359375l0.15625 0q-0.140625 0.578125 -0.484375 0.984375q-0.328125 0.40625 -0.828125 0.640625q-0.5 0.21875 -1.109375 0.21875zm5.9005737 -0.03125q-0.21875 0 -0.34375 -0.109375q-0.109375 -0.125 -0.109375 -0.34375l0 -6.375q0 -0.234375 0.109375 -0.34375q0.125 -0.125 0.34375 -0.125q0.203125 0 0.3125 0.125q0.109375 0.109375 0.109375 0.34375l0 1.296875l-0.140625 0q0.265625 -0.859375 0.9375 -1.328125q0.6875 -0.46875 1.640625 -0.484375q0.171875 -0.015625 0.28125 0.078125q0.125 0.078125 0.125 0.265625q0.015625 0.203125 -0.09375 0.3125q-0.09375 0.109375 -0.328125 0.140625l-0.203125 0.015625q-1.046875 0.109375 -1.625 0.703125q-0.5625 0.578125 -0.5625 1.578125l0 3.796875q0 0.21875 -0.109375 0.34375q-0.109375 0.109375 -0.34375 0.109375zm5.012451 -0.03125q-0.21875 0 -0.34375 -0.125q-0.109375 -0.140625 -0.109375 -0.359375l0 -6.28125q0 -0.234375 0.109375 -0.34375q0.125 -0.125 0.34375 -0.125q0.203125 0 0.3125 0.125q0.125 0.109375 0.125 0.34375l0 6.28125q0 0.21875 -0.109375 0.359375q-0.109375 0.125 -0.328125 0.125zm0 -9.0q-0.3125 0 -0.484375 -0.15625q-0.15625 -0.171875 -0.15625 -0.46875q0 -0.28125 0.15625 -0.4375q0.171875 -0.15625 0.484375 -0.15625q0.3125 0 0.46875 0.15625q0.171875 0.15625 0.171875 0.4375q0 0.296875 -0.171875 0.46875q-0.15625 0.15625 -0.46875 0.15625zm3.2536926 9.03125q-0.21875 0 -0.34375 -0.109375q-0.109375 -0.125 -0.109375 -0.34375l0 -6.375q0 -0.234375 0.109375 -0.34375q0.125 -0.125 0.34375 -0.125q0.203125 0 0.3125 0.125q0.109375 0.109375 0.109375 0.34375l0 1.375l-0.15625 -0.09375q0.296875 -0.875 1.0 -1.328125q0.71875 -0.453125 1.640625 -0.453125q0.84375 0 1.40625 0.296875q0.5625 0.296875 0.84375 0.921875q0.28125 0.609375 0.28125 1.53125l0 4.125q0 0.21875 -0.125 0.34375q-0.109375 0.109375 -0.3125 0.109375q-0.21875 0 -0.34375 -0.109375q-0.109375 -0.125 -0.109375 -0.34375l0 -4.046875q0 -1.078125 -0.4375 -1.5625q-0.421875 -0.5 -1.34375 -0.5q-1.046875 0 -1.6875 0.65625q-0.640625 0.65625 -0.640625 1.75l0 3.703125q0 0.453125 -0.4375 0.453125zm10.848175 2.65625q-0.796875 0 -1.53125 -0.203125q-0.734375 -0.1875 -1.34375 -0.625q-0.109375 -0.078125 -0.15625 -0.203125q-0.03125 -0.109375 0 -0.21875q0.03125 -0.109375 0.109375 -0.203125q0.078125 -0.078125 0.1875 -0.09375q0.109375 -0.015625 0.234375 0.046875q0.640625 0.421875 1.234375 0.59375q0.59375 0.171875 1.234375 0.171875q1.078125 0 1.625 -0.59375q0.5625 -0.59375 0.5625 -1.703125l0 -1.8125l0.140625 0q-0.21875 0.90625 -0.9375 1.421875q-0.71875 0.515625 -1.703125 0.515625q-0.96875 0 -1.6875 -0.453125q-0.71875 -0.453125 -1.109375 -1.25q-0.390625 -0.796875 -0.390625 -1.84375q0 -0.796875 0.21875 -1.4375q0.21875 -0.65625 0.640625 -1.125q0.421875 -0.46875 1.0 -0.71875q0.59375 -0.25 1.328125 -0.25q0.984375 0 1.703125 0.515625q0.71875 0.515625 0.921875 1.40625l-0.140625 0.078125l0 -1.5q0 -0.234375 0.109375 -0.34375q0.125 -0.125 0.328125 -0.125q0.21875 0 0.328125 0.125q0.109375 0.109375 0.109375 0.34375l0 6.328125q0 1.5625 -0.765625 2.359375q-0.75 0.796875 -2.25 0.796875zm-0.234375 -3.671875q0.734375 0 1.265625 -0.34375q0.53125 -0.34375 0.828125 -0.96875q0.296875 -0.625 0.296875 -1.46875q0 -1.28125 -0.65625 -2.03125q-0.640625 -0.75 -1.734375 -0.75q-0.734375 0 -1.28125 0.34375q-0.53125 0.34375 -0.828125 0.96875q-0.28125 0.609375 -0.28125 1.46875q0 1.265625 0.640625 2.03125q0.65625 0.75 1.75 0.75z" fill-rule="nonzero"/><path fill="#d9ead3" d="m398.76248 79.36629l0 0c0 -3.9429016 3.19635 -7.1392517 7.139221 -7.1392517l120.93411 0c1.8934326 0 3.7093506 0.75216675 5.048218 2.091034c1.3388672 1.3388748 2.0910034 3.15477 2.0910034 5.048218l0 28.556145c0 3.942894 -3.19635 7.139244 -7.139221 7.139244l-120.93411 0c-3.942871 0 -7.139221 -3.19635 -7.139221 -7.139244z" fill-rule="evenodd"/><path stroke="#000000" stroke-width="1.0" stroke-linejoin="round" stroke-linecap="butt" stroke-dasharray="1.0,3.0" d="m398.76248 79.36629l0 0c0 -3.9429016 3.19635 -7.1392517 7.139221 -7.1392517l120.93411 0c1.8934326 0 3.7093506 0.75216675 5.048218 2.091034c1.3388672 1.3388748 2.0910034 3.15477 2.0910034 5.048218l0 28.556145c0 3.942894 -3.19635 7.139244 -7.139221 7.139244l-120.93411 0c-3.942871 0 -7.139221 -3.19635 -7.139221 -7.139244z" fill-rule="evenodd"/><path fill="#000000" d="m436.23563 89.81811q-0.203125 0 -0.34375 -0.109375q-0.140625 -0.109375 -0.25 -0.328125l-4.109375 -9.5q-0.0625 -0.203125 -0.03125 -0.3125q0.03125 -0.125 0.140625 -0.1875q0.125 -0.078125 0.265625 -0.078125q0.203125 0 0.3125 0.09375q0.109375 0.078125 0.1875 0.265625l4.046875 9.40625l-0.40625 0l4.046875 -9.40625q0.0625 -0.1875 0.171875 -0.265625q0.125 -0.09375 0.328125 -0.09375q0.15625 0 0.25 0.078125q0.109375 0.0625 0.125 0.1875q0.03125 0.125 -0.046875 0.3125l-4.109375 9.5q-0.078125 0.21875 -0.21875 0.328125q-0.140625 0.109375 -0.359375 0.109375zm6.754547 -0.03125q-0.21875 0 -0.34375 -0.125q-0.109375 -0.140625 -0.109375 -0.359375l0 -6.28125q0 -0.234375 0.109375 -0.34375q0.125 -0.125 0.34375 -0.125q0.203125 0 0.3125 0.125q0.125 0.109375 0.125 0.34375l0 6.28125q0 0.21875 -0.109375 0.359375q-0.109375 0.125 -0.328125 0.125zm0 -9.0q-0.3125 0 -0.484375 -0.15625q-0.15625 -0.171875 -0.15625 -0.46875q0 -0.28125 0.15625 -0.4375q0.171875 -0.15625 0.484375 -0.15625q0.3125 0 0.46875 0.15625q0.171875 0.15625 0.171875 0.4375q0 0.296875 -0.171875 0.46875q-0.15625 0.15625 -0.46875 0.15625zm5.1130676 9.0625q-0.65625 0 -1.3125 -0.171875q-0.640625 -0.1875 -1.234375 -0.609375q-0.109375 -0.078125 -0.15625 -0.1875q-0.03125 -0.109375 -0.015625 -0.21875q0.03125 -0.125 0.109375 -0.203125q0.078125 -0.078125 0.1875 -0.09375q0.125 -0.015625 0.25 0.0625q0.578125 0.390625 1.109375 0.546875q0.546875 0.140625 1.09375 0.140625q0.890625 0 1.359375 -0.34375q0.46875 -0.34375 0.46875 -0.90625q0 -0.46875 -0.296875 -0.71875q-0.296875 -0.265625 -0.96875 -0.421875l-1.28125 -0.296875q-0.921875 -0.203125 -1.359375 -0.65625q-0.4375 -0.46875 -0.4375 -1.203125q0 -0.640625 0.328125 -1.109375q0.328125 -0.46875 0.9375 -0.71875q0.609375 -0.25 1.40625 -0.25q0.640625 0 1.21875 0.1875q0.59375 0.1875 1.03125 0.578125q0.109375 0.09375 0.140625 0.21875q0.046875 0.109375 0 0.21875q-0.03125 0.109375 -0.125 0.1875q-0.078125 0.0625 -0.203125 0.0625q-0.109375 0 -0.234375 -0.078125q-0.421875 -0.328125 -0.890625 -0.484375q-0.46875 -0.15625 -0.953125 -0.15625q-0.859375 0 -1.328125 0.359375q-0.453125 0.34375 -0.453125 0.953125q0 0.453125 0.28125 0.734375q0.296875 0.28125 0.90625 0.421875l1.28125 0.296875q0.953125 0.21875 1.421875 0.65625q0.46875 0.421875 0.46875 1.15625q0 0.9375 -0.75 1.5q-0.734375 0.546875 -2.0 0.546875zm7.193207 0q-0.84375 0 -1.40625 -0.3125q-0.5625 -0.3125 -0.84375 -0.921875q-0.28125 -0.625 -0.28125 -1.53125l0 -4.09375q0 -0.234375 0.109375 -0.34375q0.125 -0.125 0.34375 -0.125q0.203125 0 0.3125 0.125q0.125 0.109375 0.125 0.34375l0 4.046875q0 1.03125 0.421875 1.546875q0.4375 0.5 1.34375 0.5q1.0 0 1.609375 -0.671875q0.625 -0.671875 0.625 -1.75l0 -3.671875q0 -0.234375 0.109375 -0.34375q0.125 -0.125 0.34375 -0.125q0.203125 0 0.3125 0.125q0.125 0.109375 0.125 0.34375l0 6.375q0 0.453125 -0.421875 0.453125q-0.21875 0 -0.34375 -0.109375q-0.109375 -0.125 -0.109375 -0.34375l0 -1.453125l0.1875 0.09375q-0.28125 0.890625 -0.96875 1.375q-0.6875 0.46875 -1.59375 0.46875zm7.808075 0q-0.71875 0 -1.28125 -0.28125q-0.5625 -0.28125 -0.90625 -0.765625q-0.328125 -0.484375 -0.328125 -1.09375q0 -0.78125 0.390625 -1.234375q0.40625 -0.453125 1.34375 -0.640625q0.9375 -0.1875 2.578125 -0.1875l0.625 0l0 0.65625l-0.609375 0q-1.3125 0 -2.0625 0.125q-0.734375 0.109375 -1.03125 0.40625q-0.296875 0.28125 -0.296875 0.8125q0 0.65625 0.453125 1.078125q0.46875 0.40625 1.234375 0.40625q0.640625 0 1.109375 -0.296875q0.484375 -0.3125 0.75 -0.828125q0.28125 -0.53125 0.28125 -1.21875l0 -1.671875q0 -0.96875 -0.390625 -1.421875q-0.390625 -0.453125 -1.265625 -0.453125q-0.546875 0 -1.078125 0.15625q-0.515625 0.140625 -1.109375 0.46875q-0.15625 0.078125 -0.28125 0.0625q-0.125 -0.03125 -0.1875 -0.125q-0.0625 -0.09375 -0.09375 -0.21875q-0.015625 -0.125 0.03125 -0.234375q0.0625 -0.125 0.21875 -0.1875q0.609375 -0.34375 1.25 -0.5q0.640625 -0.171875 1.234375 -0.171875q0.875 0 1.4375 0.296875q0.5625 0.28125 0.828125 0.875q0.28125 0.578125 0.28125 1.5l0 4.203125q0 0.21875 -0.109375 0.34375q-0.109375 0.109375 -0.3125 0.109375q-0.203125 0 -0.328125 -0.109375q-0.109375 -0.125 -0.109375 -0.34375l0 -1.359375l0.15625 0q-0.140625 0.578125 -0.484375 0.984375q-0.328125 0.40625 -0.828125 0.640625q-0.5 0.21875 -1.109375 0.21875zm7.4943237 0q-0.96875 0 -1.515625 -0.609375q-0.53125 -0.625 -0.53125 -1.765625l0 -7.71875q0 -0.234375 0.109375 -0.34375q0.125 -0.109375 0.34375 -0.109375q0.203125 0 0.3125 0.109375q0.125 0.109375 0.125 0.34375l0 7.625q0 0.84375 0.328125 1.265625q0.34375 0.421875 1.0 0.421875q0.140625 0 0.234375 -0.015625q0.109375 -0.015625 0.21875 -0.015625q0.125 -0.015625 0.1875 0.046875q0.078125 0.0625 0.078125 0.28125q0 0.203125 -0.109375 0.3125q-0.09375 0.09375 -0.328125 0.140625q-0.109375 0.015625 -0.21875 0.015625q-0.109375 0.015625 -0.234375 0.015625zm2.583313 -0.0625q-0.21875 0 -0.34375 -0.125q-0.109375 -0.140625 -0.109375 -0.359375l0 -6.28125q0 -0.234375 0.109375 -0.34375q0.125 -0.125 0.34375 -0.125q0.203125 0 0.3125 0.125q0.125 0.109375 0.125 0.34375l0 6.28125q0 0.21875 -0.109375 0.359375q-0.109375 0.125 -0.328125 0.125zm0 -9.0q-0.3125 0 -0.484375 -0.15625q-0.15625 -0.171875 -0.15625 -0.46875q0 -0.28125 0.15625 -0.4375q0.171875 -0.15625 0.484375 -0.15625q0.3125 0 0.46875 0.15625q0.171875 0.15625 0.171875 0.4375q0 0.296875 -0.171875 0.46875q-0.15625 0.15625 -0.46875 0.15625zm2.8161926 8.9375q-0.140625 0 -0.25 -0.0625q-0.09375 -0.0625 -0.125 -0.171875q-0.03125 -0.125 0 -0.25q0.03125 -0.140625 0.15625 -0.28125l4.296875 -5.875l0 0.25l-4.140625 0q-0.1875 0 -0.28125 -0.09375q-0.09375 -0.09375 -0.09375 -0.265625q0 -0.171875 0.09375 -0.265625q0.09375 -0.09375 0.28125 -0.09375l4.578125 0q0.171875 0 0.28125 0.078125q0.109375 0.0625 0.140625 0.171875q0.046875 0.09375 0.015625 0.234375q-0.03125 0.125 -0.125 0.25l-4.359375 5.921875l0 -0.265625l4.328125 0q0.375 0 0.375 0.359375q0 0.171875 -0.109375 0.265625q-0.09375 0.09375 -0.265625 0.09375l-4.796875 0zm7.164734 0.0625q-0.21875 0 -0.34375 -0.125q-0.109375 -0.140625 -0.109375 -0.359375l0 -6.28125q0 -0.234375 0.109375 -0.34375q0.125 -0.125 0.34375 -0.125q0.203125 0 0.3125 0.125q0.125 0.109375 0.125 0.34375l0 6.28125q0 0.21875 -0.109375 0.359375q-0.109375 0.125 -0.328125 0.125zm0 -9.0q-0.3125 0 -0.484375 -0.15625q-0.15625 -0.171875 -0.15625 -0.46875q0 -0.28125 0.15625 -0.4375q0.171875 -0.15625 0.484375 -0.15625q0.3125 0 0.46875 0.15625q0.171875 0.15625 0.171875 0.4375q0 0.296875 -0.171875 0.46875q-0.15625 0.15625 -0.46875 0.15625zm3.2536926 9.03125q-0.21875 0 -0.34375 -0.109375q-0.109375 -0.125 -0.109375 -0.34375l0 -6.375q0 -0.234375 0.109375 -0.34375q0.125 -0.125 0.34375 -0.125q0.203125 0 0.3125 0.125q0.109375 0.109375 0.109375 0.34375l0 1.375l-0.15625 -0.09375q0.296875 -0.875 1.0 -1.328125q0.71875 -0.453125 1.640625 -0.453125q0.84375 0 1.40625 0.296875q0.5625 0.296875 0.84375 0.921875q0.28125 0.609375 0.28125 1.53125l0 4.125q0 0.21875 -0.125 0.34375q-0.109375 0.109375 -0.3125 0.109375q-0.21875 0 -0.34375 -0.109375q-0.109375 -0.125 -0.109375 -0.34375l0 -4.046875q0 -1.078125 -0.4375 -1.5625q-0.421875 -0.5 -1.34375 -0.5q-1.046875 0 -1.6875 0.65625q-0.640625 0.65625 -0.640625 1.75l0 3.703125q0 0.453125 -0.4375 0.453125zm10.848175 2.65625q-0.796875 0 -1.53125 -0.203125q-0.734375 -0.1875 -1.34375 -0.625q-0.109375 -0.078125 -0.15625 -0.203125q-0.03125 -0.109375 0 -0.21875q0.03125 -0.109375 0.109375 -0.203125q0.078125 -0.078125 0.1875 -0.09375q0.109375 -0.015625 0.234375 0.046875q0.640625 0.421875 1.234375 0.59375q0.59375 0.171875 1.234375 0.171875q1.078125 0 1.625 -0.59375q0.5625 -0.59375 0.5625 -1.703125l0 -1.8125l0.140625 0q-0.21875 0.90625 -0.9375 1.421875q-0.71875 0.515625 -1.703125 0.515625q-0.96875 0 -1.6875 -0.453125q-0.71875 -0.453125 -1.109375 -1.25q-0.390625 -0.796875 -0.390625 -1.84375q0 -0.796875 0.21875 -1.4375q0.21875 -0.65625 0.640625 -1.125q0.421875 -0.46875 1.0 -0.71875q0.59375 -0.25 1.328125 -0.25q0.984375 0 1.703125 0.515625q0.71875 0.515625 0.921875 1.40625l-0.140625 0.078125l0 -1.5q0 -0.234375 0.109375 -0.34375q0.125 -0.125 0.328125 -0.125q0.21875 0 0.328125 0.125q0.109375 0.109375 0.109375 0.34375l0 6.328125q0 1.5625 -0.765625 2.359375q-0.75 0.796875 -2.25 0.796875zm-0.234375 -3.671875q0.734375 0 1.265625 -0.34375q0.53125 -0.34375 0.828125 -0.96875q0.296875 -0.625 0.296875 -1.46875q0 -1.28125 -0.65625 -2.03125q-0.640625 -0.75 -1.734375 -0.75q-0.734375 0 -1.28125 0.34375q-0.53125 0.34375 -0.828125 0.96875q-0.28125 0.609375 -0.28125 1.46875q0 1.265625 0.640625 2.03125q0.65625 0.75 1.75 0.75z" fill-rule="nonzero"/><path fill="#000000" d="m423.6966 107.84936q-0.984375 0 -1.75 -0.265625q-0.765625 -0.265625 -1.28125 -0.796875q-0.5 -0.53125 -0.75 -1.296875q-0.25 -0.78125 -0.25 -1.796875l0 -5.9375q0 -0.234375 0.109375 -0.34375q0.125 -0.109375 0.328125 -0.109375q0.21875 0 0.328125 0.109375q0.125 0.109375 0.125 0.34375l0 5.859375q0 1.71875 0.796875 2.5625q0.796875 0.84375 2.34375 0.84375q1.546875 0 2.328125 -0.84375q0.796875 -0.84375 0.796875 -2.5625l0 -5.859375q0 -0.234375 0.109375 -0.34375q0.125 -0.109375 0.34375 -0.109375q0.21875 0 0.328125 0.109375q0.125 0.109375 0.125 0.34375l0 5.9375q0 1.34375 -0.46875 2.28125q-0.453125 0.921875 -1.359375 1.40625q-0.890625 0.46875 -2.203125 0.46875zm6.923645 -0.03125q-0.21875 0 -0.34375 -0.109375q-0.109375 -0.125 -0.109375 -0.34375l0 -6.375q0 -0.234375 0.109375 -0.34375q0.125 -0.125 0.34375 -0.125q0.203125 0 0.3125 0.125q0.109375 0.109375 0.109375 0.34375l0 1.375l-0.15625 -0.09375q0.296875 -0.875 1.0 -1.328125q0.71875 -0.453125 1.640625 -0.453125q0.84375 0 1.40625 0.296875q0.5625 0.296875 0.84375 0.921875q0.28125 0.609375 0.28125 1.53125l0 4.125q0 0.21875 -0.125 0.34375q-0.109375 0.109375 -0.3125 0.109375q-0.21875 0 -0.34375 -0.109375q-0.109375 -0.125 -0.109375 -0.34375l0 -4.046875q0 -1.078125 -0.4375 -1.5625q-0.421875 -0.5 -1.34375 -0.5q-1.046875 0 -1.6875 0.65625q-0.640625 0.65625 -0.640625 1.75l0 3.703125q0 0.453125 -0.4375 0.453125zm10.473175 0.03125q-0.953125 0 -1.671875 -0.453125q-0.703125 -0.453125 -1.09375 -1.28125q-0.390625 -0.828125 -0.390625 -1.953125q0 -1.125 0.375 -1.9375q0.390625 -0.828125 1.09375 -1.28125q0.71875 -0.453125 1.6875 -0.453125q0.984375 0 1.6875 0.515625q0.703125 0.5 0.9375 1.375l-0.15625 0l0 -4.625q0 -0.234375 0.109375 -0.34375q0.125 -0.109375 0.328125 -0.109375q0.21875 0 0.328125 0.109375q0.125 0.109375 0.125 0.34375l0 9.609375q0 0.21875 -0.125 0.34375q-0.109375 0.109375 -0.3125 0.109375q-0.21875 0 -0.34375 -0.109375q-0.109375 -0.125 -0.109375 -0.34375l0 -1.515625l0.15625 0.109375q-0.234375 0.859375 -0.9375 1.375q-0.703125 0.515625 -1.6875 0.515625zm0.109375 -0.75q0.734375 0 1.265625 -0.34375q0.53125 -0.34375 0.8125 -1.0q0.296875 -0.671875 0.296875 -1.59375q0 -1.390625 -0.640625 -2.15625q-0.640625 -0.765625 -1.734375 -0.765625q-0.71875 0 -1.25 0.34375q-0.53125 0.34375 -0.828125 1.0q-0.28125 0.65625 -0.28125 1.578125q0 1.40625 0.640625 2.171875q0.65625 0.765625 1.71875 0.765625zm8.692993 0.75q-1.09375 0 -1.890625 -0.4375q-0.796875 -0.453125 -1.21875 -1.265625q-0.421875 -0.828125 -0.421875 -1.953125q0 -1.109375 0.421875 -1.9375q0.421875 -0.828125 1.171875 -1.296875q0.765625 -0.46875 1.75 -0.46875q0.71875 0 1.265625 0.25q0.546875 0.234375 0.9375 0.6875q0.390625 0.4375 0.59375 1.078125q0.203125 0.625 0.203125 1.4375q0 0.203125 -0.109375 0.3125q-0.109375 0.09375 -0.296875 0.09375l-5.296875 0l0 -0.65625l5.140625 0l-0.234375 0.1875q0 -0.84375 -0.25 -1.4375q-0.234375 -0.59375 -0.734375 -0.90625q-0.484375 -0.328125 -1.203125 -0.328125q-0.8125 0 -1.375 0.375q-0.546875 0.359375 -0.828125 1.015625q-0.28125 0.65625 -0.28125 1.5l0 0.078125q0 1.40625 0.6875 2.171875q0.6875 0.75 1.9375 0.75q0.546875 0 1.046875 -0.140625q0.515625 -0.15625 0.984375 -0.515625q0.15625 -0.09375 0.296875 -0.09375q0.140625 0 0.234375 0.078125q0.09375 0.0625 0.125 0.171875q0.046875 0.109375 -0.015625 0.234375q-0.046875 0.125 -0.1875 0.234375q-0.46875 0.375 -1.140625 0.578125q-0.65625 0.203125 -1.3125 0.203125zm5.083252 -0.03125q-0.21875 0 -0.34375 -0.109375q-0.109375 -0.125 -0.109375 -0.34375l0 -6.375q0 -0.234375 0.109375 -0.34375q0.125 -0.125 0.34375 -0.125q0.203125 0 0.3125 0.125q0.109375 0.109375 0.109375 0.34375l0 1.296875l-0.140625 0q0.265625 -0.859375 0.9375 -1.328125q0.6875 -0.46875 1.640625 -0.484375q0.171875 -0.015625 0.28125 0.078125q0.125 0.078125 0.125 0.265625q0.015625 0.203125 -0.09375 0.3125q-0.09375 0.109375 -0.328125 0.140625l-0.203125 0.015625q-1.046875 0.109375 -1.625 0.703125q-0.5625 0.578125 -0.5625 1.578125l0 3.796875q0 0.21875 -0.109375 0.34375q-0.109375 0.109375 -0.34375 0.109375zm6.7984924 0.03125q-0.65625 0 -1.3125 -0.171875q-0.640625 -0.1875 -1.234375 -0.609375q-0.109375 -0.078125 -0.15625 -0.1875q-0.03125 -0.109375 -0.015625 -0.21875q0.03125 -0.125 0.109375 -0.203125q0.078125 -0.078125 0.1875 -0.09375q0.125 -0.015625 0.25 0.0625q0.578125 0.390625 1.109375 0.546875q0.546875 0.140625 1.09375 0.140625q0.890625 0 1.359375 -0.34375q0.46875 -0.34375 0.46875 -0.90625q0 -0.46875 -0.296875 -0.71875q-0.296875 -0.265625 -0.96875 -0.421875l-1.28125 -0.296875q-0.921875 -0.203125 -1.359375 -0.65625q-0.4375 -0.46875 -0.4375 -1.203125q0 -0.640625 0.328125 -1.109375q0.328125 -0.46875 0.9375 -0.71875q0.609375 -0.25 1.40625 -0.25q0.640625 0 1.21875 0.1875q0.59375 0.1875 1.03125 0.578125q0.109375 0.09375 0.140625 0.21875q0.046875 0.109375 0 0.21875q-0.03125 0.109375 -0.125 0.1875q-0.078125 0.0625 -0.203125 0.0625q-0.109375 0 -0.234375 -0.078125q-0.421875 -0.328125 -0.890625 -0.484375q-0.46875 -0.15625 -0.953125 -0.15625q-0.859375 0 -1.328125 0.359375q-0.453125 0.34375 -0.453125 0.953125q0 0.453125 0.28125 0.734375q0.296875 0.28125 0.90625 0.421875l1.28125 0.296875q0.953125 0.21875 1.421875 0.65625q0.46875 0.421875 0.46875 1.15625q0 0.9375 -0.75 1.5q-0.734375 0.546875 -2.0 0.546875zm7.307373 0q-0.796875 0 -1.328125 -0.296875q-0.515625 -0.296875 -0.78125 -0.84375q-0.265625 -0.546875 -0.265625 -1.359375l0 -4.015625l-1.09375 0q-0.1875 0 -0.3125 -0.09375q-0.109375 -0.09375 -0.109375 -0.265625q0 -0.171875 0.109375 -0.265625q0.125 -0.09375 0.3125 -0.09375l1.09375 0l0 -1.828125q0 -0.234375 0.109375 -0.34375q0.125 -0.109375 0.34375 -0.109375q0.203125 0 0.3125 0.109375q0.125 0.109375 0.125 0.34375l0 1.828125l1.984375 0q0.203125 0 0.296875 0.09375q0.109375 0.09375 0.109375 0.265625q0 0.171875 -0.109375 0.265625q-0.09375 0.09375 -0.296875 0.09375l-1.984375 0l0 3.90625q0 0.890625 0.359375 1.359375q0.375 0.46875 1.21875 0.46875q0.296875 0 0.484375 -0.0625q0.203125 -0.078125 0.34375 -0.078125q0.09375 0 0.171875 0.09375q0.09375 0.09375 0.09375 0.28125q0 0.109375 -0.0625 0.234375q-0.046875 0.109375 -0.171875 0.140625q-0.171875 0.0625 -0.453125 0.109375q-0.265625 0.0625 -0.5 0.0625zm4.425476 0q-0.71875 0 -1.28125 -0.28125q-0.5625 -0.28125 -0.90625 -0.765625q-0.328125 -0.484375 -0.328125 -1.09375q0 -0.78125 0.390625 -1.234375q0.40625 -0.453125 1.34375 -0.640625q0.9375 -0.1875 2.578125 -0.1875l0.625 0l0 0.65625l-0.609375 0q-1.3125 0 -2.0625 0.125q-0.734375 0.109375 -1.03125 0.40625q-0.296875 0.28125 -0.296875 0.8125q0 0.65625 0.453125 1.078125q0.46875 0.40625 1.234375 0.40625q0.640625 0 1.109375 -0.296875q0.484375 -0.3125 0.75 -0.828125q0.28125 -0.53125 0.28125 -1.21875l0 -1.671875q0 -0.96875 -0.390625 -1.421875q-0.390625 -0.453125 -1.265625 -0.453125q-0.546875 0 -1.078125 0.15625q-0.515625 0.140625 -1.109375 0.46875q-0.15625 0.078125 -0.28125 0.0625q-0.125 -0.03125 -0.1875 -0.125q-0.0625 -0.09375 -0.09375 -0.21875q-0.015625 -0.125 0.03125 -0.234375q0.0625 -0.125 0.21875 -0.1875q0.609375 -0.34375 1.25 -0.5q0.640625 -0.171875 1.234375 -0.171875q0.875 0 1.4375 0.296875q0.5625 0.28125 0.828125 0.875q0.28125 0.578125 0.28125 1.5l0 4.203125q0 0.21875 -0.109375 0.34375q-0.109375 0.109375 -0.3125 0.109375q-0.203125 0 -0.328125 -0.109375q-0.109375 -0.125 -0.109375 -0.34375l0 -1.359375l0.15625 0q-0.140625 0.578125 -0.484375 0.984375q-0.328125 0.40625 -0.828125 0.640625q-0.5 0.21875 -1.109375 0.21875zm5.9006042 -0.03125q-0.21875 0 -0.34375 -0.109375q-0.109375 -0.125 -0.109375 -0.34375l0 -6.375q0 -0.234375 0.109375 -0.34375q0.125 -0.125 0.34375 -0.125q0.203125 0 0.3125 0.125q0.109375 0.109375 0.109375 0.34375l0 1.375l-0.15625 -0.09375q0.296875 -0.875 1.0 -1.328125q0.71875 -0.453125 1.640625 -0.453125q0.84375 0 1.40625 0.296875q0.5625 0.296875 0.84375 0.921875q0.28125 0.609375 0.28125 1.53125l0 4.125q0 0.21875 -0.125 0.34375q-0.109375 0.109375 -0.3125 0.109375q-0.21875 0 -0.34375 -0.109375q-0.109375 -0.125 -0.109375 -0.34375l0 -4.046875q0 -1.078125 -0.4375 -1.5625q-0.421875 -0.5 -1.34375 -0.5q-1.046875 0 -1.6875 0.65625q-0.640625 0.65625 -0.640625 1.75l0 3.703125q0 0.453125 -0.4375 0.453125zm10.473145 0.03125q-0.953125 0 -1.671875 -0.453125q-0.703125 -0.453125 -1.09375 -1.28125q-0.390625 -0.828125 -0.390625 -1.953125q0 -1.125 0.375 -1.9375q0.390625 -0.828125 1.09375 -1.28125q0.71875 -0.453125 1.6875 -0.453125q0.984375 0 1.6875 0.515625q0.703125 0.5 0.9375 1.375l-0.15625 0l0 -4.625q0 -0.234375 0.109375 -0.34375q0.125 -0.109375 0.328125 -0.109375q0.21875 0 0.328125 0.109375q0.125 0.109375 0.125 0.34375l0 9.609375q0 0.21875 -0.125 0.34375q-0.109375 0.109375 -0.3125 0.109375q-0.21875 0 -0.34375 -0.109375q-0.109375 -0.125 -0.109375 -0.34375l0 -1.515625l0.15625 0.109375q-0.234375 0.859375 -0.9375 1.375q-0.703125 0.515625 -1.6875 0.515625zm0.109375 -0.75q0.734375 0 1.265625 -0.34375q0.53125 -0.34375 0.8125 -1.0q0.296875 -0.671875 0.296875 -1.59375q0 -1.390625 -0.640625 -2.15625q-0.640625 -0.765625 -1.734375 -0.765625q-0.71875 0 -1.25 0.34375q-0.53125 0.34375 -0.828125 1.0q-0.28125 0.65625 -0.28125 1.578125q0 1.40625 0.640625 2.171875q0.65625 0.765625 1.71875 0.765625zm6.052368 0.6875q-0.21875 0 -0.34375 -0.125q-0.109375 -0.140625 -0.109375 -0.359375l0 -6.28125q0 -0.234375 0.109375 -0.34375q0.125 -0.125 0.34375 -0.125q0.203125 0 0.3125 0.125q0.125 0.109375 0.125 0.34375l0 6.28125q0 0.21875 -0.109375 0.359375q-0.109375 0.125 -0.328125 0.125zm0 -9.0q-0.3125 0 -0.484375 -0.15625q-0.15625 -0.171875 -0.15625 -0.46875q0 -0.28125 0.15625 -0.4375q0.171875 -0.15625 0.484375 -0.15625q0.3125 0 0.46875 0.15625q0.171875 0.15625 0.171875 0.4375q0 0.296875 -0.171875 0.46875q-0.15625 0.15625 -0.46875 0.15625zm3.2536926 9.03125q-0.21875 0 -0.34375 -0.109375q-0.109375 -0.125 -0.109375 -0.34375l0 -6.375q0 -0.234375 0.109375 -0.34375q0.125 -0.125 0.34375 -0.125q0.203125 0 0.3125 0.125q0.109375 0.109375 0.109375 0.34375l0 1.375l-0.15625 -0.09375q0.296875 -0.875 1.0 -1.328125q0.71875 -0.453125 1.640625 -0.453125q0.84375 0 1.40625 0.296875q0.5625 0.296875 0.84375 0.921875q0.28125 0.609375 0.28125 1.53125l0 4.125q0 0.21875 -0.125 0.34375q-0.109375 0.109375 -0.3125 0.109375q-0.21875 0 -0.34375 -0.109375q-0.109375 -0.125 -0.109375 -0.34375l0 -4.046875q0 -1.078125 -0.4375 -1.5625q-0.421875 -0.5 -1.34375 -0.5q-1.046875 0 -1.6875 0.65625q-0.640625 0.65625 -0.640625 1.75l0 3.703125q0 0.453125 -0.4375 0.453125zm10.848175 2.65625q-0.796875 0 -1.53125 -0.203125q-0.734375 -0.1875 -1.34375 -0.625q-0.109375 -0.078125 -0.15625 -0.203125q-0.03125 -0.109375 0 -0.21875q0.03125 -0.109375 0.109375 -0.203125q0.078125 -0.078125 0.1875 -0.09375q0.109375 -0.015625 0.234375 0.046875q0.640625 0.421875 1.234375 0.59375q0.59375 0.171875 1.234375 0.171875q1.078125 0 1.625 -0.59375q0.5624695 -0.59375 0.5624695 -1.703125l0 -1.8125l0.140625 0q-0.21875 0.90625 -0.9374695 1.421875q-0.71875 0.515625 -1.703125 0.515625q-0.96875 0 -1.6875 -0.453125q-0.71875 -0.453125 -1.109375 -1.25q-0.390625 -0.796875 -0.390625 -1.84375q0 -0.796875 0.21875 -1.4375q0.21875 -0.65625 0.640625 -1.125q0.421875 -0.46875 1.0 -0.71875q0.59375 -0.25 1.328125 -0.25q0.984375 0 1.703125 0.515625q0.7187195 0.515625 0.9218445 1.40625l-0.140625 0.078125l0 -1.5q0 -0.234375 0.109375 -0.34375q0.125 -0.125 0.328125 -0.125q0.21875 0 0.328125 0.125q0.109375 0.109375 0.109375 0.34375l0 6.328125q0 1.5625 -0.765625 2.359375q-0.7499695 0.796875 -2.2499695 0.796875zm-0.234375 -3.671875q0.734375 0 1.265625 -0.34375q0.53125 -0.34375 0.8280945 -0.96875q0.296875 -0.625 0.296875 -1.46875q0 -1.28125 -0.6562195 -2.03125q-0.640625 -0.75 -1.734375 -0.75q-0.734375 0 -1.28125 0.34375q-0.53125 0.34375 -0.828125 0.96875q-0.28125 0.609375 -0.28125 1.46875q0 1.265625 0.640625 2.03125q0.65625 0.75 1.75 0.75z" fill-rule="nonzero"/><path fill="#cfe2f3" d="m195.06496 23.124763l0 0c0 -2.5135994 2.037674 -4.5512733 4.5512695 -4.5512733l163.36989 0c1.2070923 0 2.3647156 0.47950745 3.2182312 1.3330383c0.85354614 0.853529 1.3330383 2.0111618 1.3330383 3.218235l0 18.20454c0 2.5135994 -2.0376587 4.5512733 -4.5512695 4.5512733l-163.36989 0c-2.5135956 0 -4.5512695 -2.037674 -4.5512695 -4.5512733z" fill-rule="evenodd"/><path stroke="#000000" stroke-width="1.0" stroke-linejoin="round" stroke-linecap="butt" d="m195.06496 23.124763l0 0c0 -2.5135994 2.037674 -4.5512733 4.5512695 -4.5512733l163.36989 0c1.2070923 0 2.3647156 0.47950745 3.2182312 1.3330383c0.85354614 0.853529 1.3330383 2.0111618 1.3330383 3.218235l0 18.20454c0 2.5135994 -2.0376587 4.5512733 -4.5512695 4.5512733l-163.36989 0c-2.5135956 0 -4.5512695 -2.037674 -4.5512695 -4.5512733z" fill-rule="evenodd"/><path fill="#000000" d="m233.11632 38.087032q-0.28125 0 -0.421875 -0.125q-0.140625 -0.140625 -0.140625 -0.375q0 -0.125 0.0625 -0.25q0.0625 -0.125 0.1875 -0.234375l3.734375 -4.0625q0.859375 -0.921875 1.25 -1.7031231q0.390625 -0.796875 0.390625 -1.640625q0 -1.03125 -0.625 -1.578125q-0.625 -0.546875 -1.828125 -0.546875q-0.796875 0 -1.484375 0.265625q-0.671875 0.265625 -1.296875 0.78125q-0.15625 0.125 -0.296875 0.125q-0.140625 0 -0.234375 -0.078125q-0.09375 -0.09375 -0.140625 -0.234375q-0.03125 -0.140625 0 -0.28125q0.046875 -0.140625 0.171875 -0.25q0.625 -0.546875 1.5 -0.875q0.890625 -0.34375 1.828125 -0.34375q1.09375 0 1.84375 0.34375q0.765625 0.34375 1.15625 1.015625q0.40625 0.671875 0.40625 1.609375q0 0.671875 -0.234375 1.328125q-0.21875 0.65625 -0.65625 1.3281231q-0.4375 0.671875 -1.125 1.40625l-3.59375 3.8125l0 -0.296875l5.703125 0q0.234375 0 0.34375 0.109375q0.125 0.09375 0.125 0.296875q0 0.234375 -0.125 0.34375q-0.109375 0.109375 -0.34375 0.109375l-6.15625 0zm9.334396 0.046875q-0.328125 0 -0.53125 -0.203125q-0.203125 -0.21875 -0.203125 -0.53125q0 -0.328125 0.203125 -0.53125q0.203125 -0.203125 0.53125 -0.203125q0.328125 0 0.53125 0.203125q0.203125 0.203125 0.203125 0.53125q0 0.3125 -0.203125 0.53125q-0.203125 0.203125 -0.53125 0.203125zm7.723526 0.046875q-0.21875 0 -0.359375 -0.125q-0.125 -0.140625 -0.125 -0.390625l0 -10.343748q0 -0.265625 0.140625 -0.390625q0.140625 -0.125 0.359375 -0.125l3.765625 0q1.78125 0 2.7343597 0.84375q0.96875 0.828125 0.96875 2.359375q0 0.984375 -0.4375 1.703125q-0.421875 0.7187481 -1.2656097 1.0937481q-0.84375 0.359375 -2.0 0.359375l0.171875 -0.21875l0.21875 0q0.609375 0 1.0625 0.328125q0.453125 0.3125 0.82810974 1.03125l1.703125 3.15625q0.109375 0.171875 0.09375 0.34375q0 0.171875 -0.125 0.28125q-0.109375 0.09375 -0.28125 0.09375q-0.203125 0 -0.34375 -0.09375q-0.140625 -0.09375 -0.234375 -0.265625l-1.7812347 -3.34375q-0.421875 -0.78125 -0.9375 -1.015625q-0.515625 -0.25 -1.375 -0.25l-2.28125 0l0 4.453125q0 0.25 -0.125 0.390625q-0.125 0.125 -0.375 0.125zm0.5 -5.8125l3.140625 0q1.4375 0 2.140625 -0.5937481q0.71873474 -0.59375 0.71873474 -1.765625q0 -1.15625 -0.71873474 -1.75q-0.703125 -0.609375 -2.140625 -0.609375l-3.140625 0l0 4.718748zm12.603134 5.84375q-1.203125 0 -2.0625 -0.46875q-0.859375 -0.484375 -1.328125 -1.375q-0.46875 -0.90625 -0.46875 -2.140625q0 -1.21875 0.46875 -2.109375q0.46875 -0.9062481 1.28125 -1.4218731q0.828125 -0.515625 1.90625 -0.515625q0.78125 0 1.375 0.265625q0.609375 0.265625 1.03125 0.75q0.421875 0.484375 0.640625 1.1874981q0.234375 0.6875 0.234375 1.578125q0 0.21875 -0.125 0.328125q-0.125 0.109375 -0.328125 0.109375l-5.78125 0l0 -0.71875l5.625 0l-0.265625 0.21875q0 -0.9375 -0.28125 -1.578125q-0.265625 -0.6562481 -0.796875 -0.9999981q-0.53125 -0.359375 -1.3125 -0.359375q-0.890625 0 -1.5 0.421875q-0.59375 0.40625 -0.90625 1.1249981q-0.296875 0.703125 -0.296875 1.625l0 0.078125q0 1.53125 0.75 2.359375q0.75 0.828125 2.109375 0.828125q0.59375 0 1.140625 -0.15625q0.546875 -0.171875 1.078125 -0.546875q0.171875 -0.109375 0.3125 -0.109375q0.15625 0 0.25 0.078125q0.109375 0.078125 0.140625 0.203125q0.046875 0.109375 -0.015625 0.25q-0.046875 0.140625 -0.203125 0.25q-0.515625 0.421875 -1.234375 0.640625q-0.71875 0.203125 -1.4375 0.203125zm7.5882874 0q-0.71875 0 -1.4375 -0.1875q-0.71875 -0.1875 -1.34375 -0.65625q-0.140625 -0.078125 -0.1875 -0.203125q-0.03125 -0.125 -0.015625 -0.25q0.03125 -0.125 0.125 -0.203125q0.09375 -0.09375 0.21875 -0.109375q0.125 -0.015625 0.265625 0.078125q0.625 0.421875 1.21875 0.578125q0.59375 0.15625 1.1875 0.15625q0.96875 0 1.484375 -0.359375q0.515625 -0.375 0.515625 -1.0q0 -0.515625 -0.328125 -0.796875q-0.328125 -0.28125 -1.0625 -0.453125l-1.390625 -0.3125q-1.015625 -0.234375 -1.5 -0.734375q-0.46875 -0.5 -0.46875 -1.296875q0 -0.6874981 0.359375 -1.2031231q0.359375 -0.515625 1.015625 -0.796875q0.671875 -0.28125 1.53125 -0.28125q0.703125 0 1.34375 0.21875q0.640625 0.203125 1.125 0.625q0.125 0.109375 0.15625 0.234375q0.046875 0.125 0 0.25q-0.03125 0.109375 -0.125 0.203125q-0.09375 0.078125 -0.234375 0.078125q-0.125 0 -0.265625 -0.109375q-0.46875 -0.34375 -0.984375 -0.515625q-0.5 -0.171875 -1.03125 -0.171875q-0.921875 0 -1.4375 0.390625q-0.5 0.390625 -0.5 1.0468731q0 0.484375 0.3125 0.796875q0.3125 0.296875 0.984375 0.453125l1.390625 0.328125q1.046875 0.234375 1.546875 0.71875q0.515625 0.46875 0.515625 1.265625q0 1.015625 -0.8125 1.625q-0.796875 0.59375 -2.171875 0.59375zm7.8511353 0q-0.921875 0 -1.546875 -0.328125q-0.609375 -0.34375 -0.921875 -1.015625q-0.296875 -0.671875 -0.296875 -1.65625l0 -4.484373q0 -0.25 0.125 -0.375q0.125 -0.140625 0.375 -0.140625q0.21875 0 0.34375 0.140625q0.125 0.125 0.125 0.375l0 4.437498q0 1.109375 0.46875 1.671875q0.46875 0.546875 1.453125 0.546875q1.09375 0 1.765625 -0.71875q0.671875 -0.734375 0.671875 -1.921875l0 -4.015623q0 -0.25 0.125 -0.375q0.125 -0.140625 0.375 -0.140625q0.21875 0 0.34375 0.140625q0.125 0.125 0.125 0.375l0 6.953123q0 0.5 -0.453125 0.5q-0.234375 0 -0.359375 -0.125q-0.125 -0.125 -0.125 -0.375l0 -1.578125l0.1875 0.109375q-0.296875 0.984375 -1.0625 1.5q-0.75 0.5 -1.71875 0.5zm8.348022 0q-1.0625 0 -1.65625 -0.671875q-0.578125 -0.671875 -0.578125 -1.90625l0 -8.421873q0 -0.265625 0.125 -0.375q0.125 -0.125 0.375 -0.125q0.21875 0 0.34375 0.125q0.125 0.109375 0.125 0.375l0 8.312498q0 0.9375 0.359375 1.390625q0.375 0.453125 1.09375 0.453125q0.15625 0 0.265625 -0.015625q0.109375 -0.015625 0.21875 -0.015625q0.15625 -0.015625 0.21875 0.0625q0.078125 0.0625 0.078125 0.28125q0 0.234375 -0.125 0.34375q-0.109375 0.109375 -0.359375 0.15625q-0.109375 0.015625 -0.234375 0.015625q-0.125 0.015625 -0.25 0.015625zm5.135498 0q-0.859375 0 -1.4375 -0.3125q-0.578125 -0.328125 -0.875 -0.921875q-0.28125 -0.609375 -0.28125 -1.484375l0 -4.374998l-1.171875 0q-0.21875 0 -0.34375 -0.109375q-0.125 -0.109375 -0.125 -0.296875q0 -0.171875 0.125 -0.28125q0.125 -0.109375 0.34375 -0.109375l1.171875 0l0 -2.0q0 -0.25 0.125 -0.359375q0.140625 -0.125 0.375 -0.125q0.234375 0 0.359375 0.125q0.125 0.109375 0.125 0.359375l0 2.0l2.15625 0q0.21875 0 0.328125 0.109375q0.125 0.109375 0.125 0.28125q0 0.1875 -0.125 0.296875q-0.109375 0.109375 -0.328125 0.109375l-2.15625 0l0 4.249998q0 0.96875 0.390625 1.484375q0.40625 0.515625 1.328125 0.515625q0.328125 0 0.546875 -0.0625q0.21875 -0.078125 0.359375 -0.078125q0.109375 0 0.1875 0.09375q0.09375 0.09375 0.09375 0.296875q0 0.125 -0.0625 0.265625q-0.046875 0.125 -0.1875 0.15625q-0.171875 0.0625 -0.484375 0.109375q-0.296875 0.0625 -0.5625 0.0625zm7.157654 -0.125q-0.21875 0 -0.359375 -0.125q-0.140625 -0.140625 -0.140625 -0.390625l0 -10.328123q0 -0.265625 0.125 -0.390625q0.140625 -0.125 0.359375 -0.125q0.234375 0 0.359375 0.125q0.140625 0.125 0.140625 0.390625l0 9.968748l5.5 0q0.234375 0 0.359375 0.109375q0.125 0.109375 0.125 0.3125q0 0.234375 -0.125 0.34375q-0.125 0.109375 -0.359375 0.109375l-5.984375 0zm10.886261 0.125q-1.09375 0 -1.890625 -0.484375q-0.796875 -0.5 -1.25 -1.390625q-0.4375 -0.90625 -0.4375 -2.140625q0 -0.90625 0.25 -1.640625q0.25 -0.7343731 0.71875 -1.2656231q0.46875 -0.546875 1.125 -0.828125q0.671875 -0.28125 1.484375 -0.28125q1.09375 0 1.890625 0.5q0.8125 0.5 1.25 1.4062481q0.4375 0.890625 0.4375 2.109375q0 0.9375 -0.25 1.671875q-0.25 0.734375 -0.71875 1.265625q-0.46875 0.515625 -1.125 0.796875q-0.65625 0.28125 -1.484375 0.28125zm0 -0.8125q0.796875 0 1.375 -0.375q0.59375 -0.375 0.890625 -1.09375q0.3125 -0.71875 0.3125 -1.734375q0 -1.515625 -0.703125 -2.343748q-0.6875 -0.84375 -1.875 -0.84375q-0.796875 0 -1.375 0.390625q-0.578125 0.375 -0.890625 1.0937481q-0.3125 0.703125 -0.3125 1.703125q0 1.53125 0.703125 2.375q0.703125 0.828125 1.875 0.828125zm9.033264 3.703125q-0.859375 0 -1.671875 -0.21875q-0.8125 -0.21875 -1.46875 -0.703125q-0.125 -0.078125 -0.171875 -0.203125q-0.03125 -0.125 0 -0.25q0.03125 -0.125 0.109375 -0.21875q0.09375 -0.09375 0.21875 -0.109375q0.125 -0.015625 0.25 0.046875q0.703125 0.46875 1.34375 0.640625q0.65625 0.1875 1.359375 0.1875q1.171875 0 1.78125 -0.65625q0.609375 -0.640625 0.609375 -1.828125l0 -1.984375l0.15625 0q-0.25 0.984375 -1.03125 1.546875q-0.78125 0.5625 -1.859375 0.5625q-1.0625 0 -1.859375 -0.484375q-0.78125 -0.5 -1.203125 -1.359375q-0.421875 -0.875 -0.421875 -2.03125q0 -0.859375 0.234375 -1.5625q0.25 -0.7031231 0.703125 -1.2187481q0.453125 -0.515625 1.09375 -0.796875q0.640625 -0.28125 1.453125 -0.28125q1.078125 0 1.859375 0.578125q0.78125 0.5625 1.015625 1.5156231l-0.171875 0.09375l0 -1.6406231q0 -0.25 0.125 -0.375q0.140625 -0.140625 0.359375 -0.140625q0.25 0 0.359375 0.140625q0.125 0.125 0.125 0.375l0 6.906248q0 1.71875 -0.84375 2.59375q-0.828125 0.875 -2.453125 0.875zm-0.25 -4.03125q0.796875 0 1.375 -0.375q0.59375 -0.375 0.90625 -1.046875q0.328125 -0.6875 0.328125 -1.609375q0 -1.390625 -0.71875 -2.203123q-0.703125 -0.828125 -1.890625 -0.828125q-0.8125 0 -1.40625 0.375q-0.578125 0.359375 -0.890625 1.0468731q-0.3125 0.6875 -0.3125 1.609375q0 1.390625 0.703125 2.21875q0.703125 0.8125 1.90625 0.8125zm8.654266 1.140625q-0.71875 0 -1.4375 -0.1875q-0.71875 -0.1875 -1.34375 -0.65625q-0.140625 -0.078125 -0.1875 -0.203125q-0.03125 -0.125 -0.015625 -0.25q0.03125 -0.125 0.125 -0.203125q0.09375 -0.09375 0.21875 -0.109375q0.125 -0.015625 0.265625 0.078125q0.625 0.421875 1.21875 0.578125q0.59375 0.15625 1.1875 0.15625q0.96875 0 1.484375 -0.359375q0.515625 -0.375 0.515625 -1.0q0 -0.515625 -0.328125 -0.796875q-0.328125 -0.28125 -1.0625 -0.453125l-1.390625 -0.3125q-1.015625 -0.234375 -1.5 -0.734375q-0.46875 -0.5 -0.46875 -1.296875q0 -0.6874981 0.359375 -1.2031231q0.359375 -0.515625 1.015625 -0.796875q0.671875 -0.28125 1.53125 -0.28125q0.703125 0 1.34375 0.21875q0.640625 0.203125 1.125 0.625q0.125 0.109375 0.15625 0.234375q0.046875 0.125 0 0.25q-0.03125 0.109375 -0.125 0.203125q-0.09375 0.078125 -0.234375 0.078125q-0.125 0 -0.265625 -0.109375q-0.46875 -0.34375 -0.984375 -0.515625q-0.5 -0.171875 -1.03125 -0.171875q-0.921875 0 -1.4375 0.390625q-0.5 0.390625 -0.5 1.0468731q0 0.484375 0.3125 0.796875q0.3125 0.296875 0.984375 0.453125l1.390625 0.328125q1.046875 0.234375 1.546875 0.71875q0.515625 0.46875 0.515625 1.265625q0 1.015625 -0.8125 1.625q-0.796875 0.59375 -2.171875 0.59375z" fill-rule="nonzero"/><path fill="#cfe2f3" d="m8.517978 23.124763l0 0c0 -2.5135994 2.037674 -4.5512733 4.5512724 -4.5512733l163.3699 0c1.207077 0 2.3647003 0.47950745 3.2182312 1.3330383c0.8535309 0.853529 1.3330383 2.0111618 1.3330383 3.218235l0 18.20454c0 2.5135994 -2.037674 4.5512733 -4.5512695 4.5512733l-163.3699 0c-2.5135984 0 -4.5512724 -2.037674 -4.5512724 -4.5512733z" fill-rule="evenodd"/><path stroke="#000000" stroke-width="1.0" stroke-linejoin="round" stroke-linecap="butt" d="m8.517978 23.124763l0 0c0 -2.5135994 2.037674 -4.5512733 4.5512724 -4.5512733l163.3699 0c1.207077 0 2.3647003 0.47950745 3.2182312 1.3330383c0.8535309 0.853529 1.3330383 2.0111618 1.3330383 3.218235l0 18.20454c0 2.5135994 -2.037674 4.5512733 -4.5512695 4.5512733l-163.3699 0c-2.5135984 0 -4.5512724 -2.037674 -4.5512724 -4.5512733z" fill-rule="evenodd"/><path fill="#000000" d="m37.39882 38.087032q-0.21875 0 -0.34375 -0.109375q-0.125 -0.125 -0.125 -0.34375q0 -0.203125 0.125 -0.296875q0.125 -0.109375 0.34375 -0.109375l2.21875 0l0 -9.640623l0.5625 0l-2.328125 1.59375q-0.15625 0.109375 -0.296875 0.109375q-0.140625 -0.015625 -0.25 -0.109375q-0.09375 -0.109375 -0.140625 -0.234375q-0.03125 -0.125 0.015625 -0.265625q0.046875 -0.140625 0.21875 -0.234375l2.203125 -1.546875q0.15625 -0.09375 0.28125 -0.140625q0.140625 -0.046875 0.296875 -0.046875q0.171875 0 0.28125 0.109375q0.125 0.09375 0.125 0.34375l0 10.062498l2.078125 0q0.21875 0 0.328125 0.109375q0.125 0.09375 0.125 0.296875q0 0.234375 -0.125 0.34375q-0.109375 0.109375 -0.328125 0.109375l-5.265625 0zm8.896896 0.046875q-0.328125 0 -0.53125 -0.203125q-0.203125 -0.21875 -0.203125 -0.53125q0 -0.328125 0.203125 -0.53125q0.203125 -0.203125 0.53125 -0.203125q0.328125 0 0.53125 0.203125q0.203125 0.203125 0.203125 0.53125q0 0.3125 -0.203125 0.53125q-0.203125 0.203125 -0.53125 0.203125zm7.723526 0.046875q-0.21875 0 -0.359375 -0.125q-0.125 -0.140625 -0.125 -0.390625l0 -10.343748q0 -0.265625 0.140625 -0.390625q0.140625 -0.125 0.359375 -0.125l3.765625 0q1.78125 0 2.734375 0.875q0.96875 0.859375 0.96875 2.453125q0 1.578125 -0.96875 2.453123q-0.953125 0.875 -2.734375 0.875l-3.28125 0l0 4.203125q0 0.25 -0.125 0.390625q-0.125 0.125 -0.375 0.125zm0.5 -5.578125l3.1875 0q1.40625 0 2.109375 -0.6249981q0.703125 -0.625 0.703125 -1.84375q0 -1.21875 -0.703125 -1.84375q-0.703125 -0.640625 -2.109375 -0.640625l-3.1875 0l0 4.953123zm10.389145 8.453125q-0.1875 0 -0.296875 -0.109375q-0.109375 -0.09375 -0.125 -0.265625q0 -0.15625 0.0625 -0.34375l1.09375 -2.5l0 0.4375l-3.125 -7.328123q-0.078125 -0.1875 -0.0625 -0.34375q0.03125 -0.171875 0.140625 -0.28125q0.125 -0.109375 0.34375 -0.109375q0.21875 0 0.3125 0.09375q0.109375 0.09375 0.1875 0.3125l2.84375 6.890623l-0.390625 0l2.84375 -6.890623q0.09375 -0.234375 0.203125 -0.3125q0.125 -0.09375 0.328125 -0.09375q0.203125 0 0.3125 0.109375q0.109375 0.109375 0.125 0.265625q0.015625 0.15625 -0.078125 0.34375l-4.171875 9.749998q-0.09375 0.21875 -0.21875 0.296875q-0.109375 0.078125 -0.328125 0.078125zm9.552887 -2.84375q-0.859375 0 -1.4375 -0.3125q-0.578125 -0.328125 -0.875 -0.921875q-0.28125 -0.609375 -0.28125 -1.484375l0 -4.374998l-1.171875 0q-0.21875 0 -0.34375 -0.109375q-0.125 -0.109375 -0.125 -0.296875q0 -0.171875 0.125 -0.28125q0.125 -0.109375 0.34375 -0.109375l1.171875 0l0 -2.0q0 -0.25 0.125 -0.359375q0.140625 -0.125 0.375 -0.125q0.234375 0 0.359375 0.125q0.125 0.109375 0.125 0.359375l0 2.0l2.15625 0q0.21875 0 0.328125 0.109375q0.125 0.109375 0.125 0.28125q0 0.1875 -0.125 0.296875q-0.109375 0.109375 -0.328125 0.109375l-2.15625 0l0 4.249998q0 0.96875 0.390625 1.484375q0.40625 0.515625 1.328125 0.515625q0.328125 0 0.546875 -0.0625q0.21875 -0.078125 0.359375 -0.078125q0.109375 0 0.1875 0.09375q0.09375 0.09375 0.09375 0.296875q0 0.125 -0.0625 0.265625q-0.046875 0.125 -0.1875 0.15625q-0.171875 0.0625 -0.484375 0.109375q-0.296875 0.0625 -0.5625 0.0625zm2.986145 -0.03125q-0.25 0 -0.375 -0.125q-0.125 -0.125 -0.125 -0.375l0 -10.468748q0 -0.265625 0.125 -0.375q0.125 -0.125 0.375 -0.125q0.21875 0 0.34375 0.125q0.125 0.109375 0.125 0.375l0 4.921873l-0.1875 0q0.328125 -0.9531231 1.09375 -1.4531231q0.78125 -0.5 1.78125 -0.5q0.9375 0 1.546875 0.34375q0.625 0.328125 0.921875 1.0q0.3125 0.6718731 0.3125 1.6718731l0 4.484375q0 0.25 -0.140625 0.375q-0.125 0.125 -0.34375 0.125q-0.25 0 -0.375 -0.125q-0.125 -0.125 -0.125 -0.375l0 -4.40625q0 -1.171875 -0.46875 -1.7031231q-0.453125 -0.546875 -1.46875 -0.546875q-1.15625 0 -1.859375 0.71875q-0.6875 0.7187481 -0.6875 1.9062481l0 4.03125q0 0.5 -0.46875 0.5zm11.553772 0.03125q-1.09375 0 -1.890625 -0.484375q-0.796875 -0.5 -1.25 -1.390625q-0.4375 -0.90625 -0.4375 -2.140625q0 -0.90625 0.25 -1.640625q0.25 -0.7343731 0.71875 -1.2656231q0.46875 -0.546875 1.125 -0.828125q0.671875 -0.28125 1.484375 -0.28125q1.09375 0 1.890625 0.5q0.8125 0.5 1.25 1.4062481q0.4375 0.890625 0.4375 2.109375q0 0.9375 -0.25 1.671875q-0.25 0.734375 -0.71875 1.265625q-0.46875 0.515625 -1.125 0.796875q-0.65625 0.28125 -1.484375 0.28125zm0 -0.8125q0.796875 0 1.375 -0.375q0.59375 -0.375 0.890625 -1.09375q0.3125 -0.71875 0.3125 -1.734375q0 -1.515625 -0.703125 -2.343748q-0.6875 -0.84375 -1.875 -0.84375q-0.796875 0 -1.375 0.390625q-0.578125 0.375 -0.890625 1.0937481q-0.3125 0.703125 -0.3125 1.703125q0 1.53125 0.703125 2.375q0.703125 0.828125 1.875 0.828125zm6.158264 0.78125q-0.25 0 -0.375 -0.125q-0.125 -0.125 -0.125 -0.375l0 -6.953123q0 -0.25 0.125 -0.375q0.125 -0.140625 0.375 -0.140625q0.21875 0 0.328125 0.140625q0.125 0.125 0.125 0.375l0 1.4999981l-0.171875 -0.09375q0.328125 -0.9531231 1.09375 -1.4531231q0.78125 -0.5 1.78125 -0.5q0.9375 0 1.546875 0.328125q0.625 0.328125 0.921875 1.0q0.3125 0.6718731 0.3125 1.6874981l0 4.484375q0 0.25 -0.140625 0.375q-0.125 0.125 -0.34375 0.125q-0.25 0 -0.375 -0.125q-0.125 -0.125 -0.125 -0.375l0 -4.40625q0 -1.171875 -0.46875 -1.7031231q-0.453125 -0.546875 -1.46875 -0.546875q-1.15625 0 -1.859375 0.71875q-0.6875 0.7187481 -0.6875 1.9062481l0 4.03125q0 0.5 -0.46875 0.5zm16.19516 0.03125q-0.765625 0 -1.484375 -0.125q-0.71875 -0.125 -1.34375 -0.390625q-0.609375 -0.265625 -1.09375 -0.65625q-0.171875 -0.109375 -0.234375 -0.25q-0.046875 -0.15625 -0.015625 -0.296875q0.046875 -0.140625 0.15625 -0.234375q0.109375 -0.09375 0.25 -0.09375q0.140625 -0.015625 0.296875 0.09375q0.734375 0.546875 1.5625 0.8125q0.828125 0.25 1.90625 0.25q1.53125 0 2.28125 -0.59375q0.765625 -0.59375 0.765625 -1.546875q0 -0.8125 -0.5625 -1.25q-0.546875 -0.453125 -1.8125 -0.703125l-1.609375 -0.34375q-1.515625 -0.296875 -2.25 -1.0156231q-0.734375 -0.71875 -0.734375 -1.921875q0 -0.734375 0.28125 -1.328125q0.28125 -0.609375 0.8125 -1.03125q0.53125 -0.4375 1.25 -0.671875q0.734375 -0.234375 1.625 -0.234375q1.03125 0 1.90625 0.296875q0.875 0.28125 1.59375 0.90625q0.140625 0.109375 0.1875 0.265625q0.046875 0.140625 0 0.28125q-0.046875 0.140625 -0.140625 0.21875q-0.09375 0.078125 -0.25 0.09375q-0.140625 0 -0.296875 -0.125q-0.671875 -0.546875 -1.40625 -0.796875q-0.71875 -0.25 -1.59375 -0.25q-0.90625 0 -1.578125 0.296875q-0.65625 0.28125 -1.03125 0.8125q-0.359375 0.53125 -0.359375 1.25q0 0.828125 0.515625 1.328125q0.515625 0.484375 1.640625 0.71875l1.640625 0.3281231q1.609375 0.34375 2.390625 1.015625q0.796875 0.65625 0.796875 1.8125q0 0.6875 -0.28125 1.25q-0.28125 0.5625 -0.8125 0.984375q-0.53125 0.421875 -1.28125 0.640625q-0.734375 0.203125 -1.6875 0.203125zm9.180771 0q-1.140625 0 -1.953125 -0.5q-0.8125 -0.5 -1.265625 -1.421875q-0.4375 -0.921875 -0.4375 -2.140625q0 -0.921875 0.25 -1.640625q0.25 -0.7343731 0.71875 -1.2499981q0.46875 -0.515625 1.140625 -0.796875q0.6875 -0.28125 1.546875 -0.28125q0.59375 0 1.203125 0.203125q0.625 0.203125 1.140625 0.65625q0.109375 0.109375 0.140625 0.234375q0.03125 0.125 -0.015625 0.25q-0.046875 0.109375 -0.140625 0.1875q-0.09375 0.078125 -0.234375 0.09375q-0.125 0 -0.28125 -0.140625q-0.4375 -0.359375 -0.90625 -0.5q-0.453125 -0.140625 -0.875 -0.140625q-0.65625 0 -1.15625 0.21875q-0.5 0.203125 -0.84375 0.609375q-0.34375 0.3906231 -0.515625 0.9843731q-0.171875 0.578125 -0.171875 1.328125q0 1.5 0.6875 2.359375q0.703125 0.859375 2.0 0.859375q0.421875 0 0.875 -0.125q0.46875 -0.140625 0.90625 -0.515625q0.15625 -0.125 0.28125 -0.109375q0.140625 0 0.234375 0.078125q0.09375 0.0625 0.125 0.1875q0.046875 0.109375 0.015625 0.25q-0.03125 0.125 -0.140625 0.21875q-0.5 0.46875 -1.125 0.65625q-0.609375 0.1875 -1.203125 0.1875zm4.6721344 -0.03125q-0.25 0 -0.375 -0.125q-0.125 -0.125 -0.125 -0.375l0 -6.953123q0 -0.25 0.125 -0.375q0.125 -0.140625 0.375 -0.140625q0.21875 0 0.328125 0.140625q0.125 0.125 0.125 0.375l0 1.4218731l-0.15625 0q0.296875 -0.9374981 1.03125 -1.4531231q0.75 -0.515625 1.78125 -0.53125q0.203125 -0.015625 0.328125 0.078125q0.125 0.09375 0.125 0.3125q0.015625 0.21875 -0.09375 0.34375q-0.109375 0.109375 -0.375 0.140625l-0.21875 0.015625q-1.140625 0.125 -1.765625 0.765625q-0.625 0.6406231 -0.625 1.7187481l0 4.140625q0 0.25 -0.125 0.375q-0.109375 0.125 -0.359375 0.125zm5.4720154 -0.03125q-0.25 0 -0.375 -0.140625q-0.125 -0.140625 -0.125 -0.390625l0 -6.843748q0 -0.25 0.125 -0.375q0.125 -0.140625 0.375 -0.140625q0.21875 0 0.34375 0.140625q0.125 0.125 0.125 0.375l0 6.843748q0 0.25 -0.125 0.390625q-0.109375 0.140625 -0.34375 0.140625zm0 -9.828123q-0.34375 0 -0.53125 -0.171875q-0.171875 -0.171875 -0.171875 -0.5q0 -0.3125 0.171875 -0.484375q0.1875 -0.171875 0.53125 -0.171875q0.328125 0 0.515625 0.171875q0.1875 0.171875 0.1875 0.484375q0 0.328125 -0.1875 0.5q-0.1875 0.171875 -0.515625 0.171875zm3.552002 12.734373q-0.25 0 -0.375 -0.125q-0.125 -0.125 -0.125 -0.359375l0 -9.843748q0 -0.25 0.125 -0.375q0.125 -0.140625 0.375 -0.140625q0.21875 0 0.34375 0.140625q0.125 0.125 0.125 0.375l0 1.6249981l-0.171875 -0.09375q0.28125 -0.9531231 1.046875 -1.5156231q0.765625 -0.5625 1.84375 -0.5625q1.046875 0 1.8125 0.5q0.78125 0.5 1.203125 1.3906231q0.4375 0.890625 0.4375 2.125q0 1.234375 -0.4375 2.140625q-0.421875 0.90625 -1.1875 1.390625q-0.765625 0.484375 -1.828125 0.484375q-1.078125 0 -1.84375 -0.546875q-0.765625 -0.5625 -1.046875 -1.5l0.171875 0l0 4.40625q0 0.234375 -0.125 0.359375q-0.125 0.125 -0.34375 0.125zm3.046875 -3.65625q0.78125 0 1.359375 -0.375q0.59375 -0.375 0.90625 -1.09375q0.328125 -0.71875 0.328125 -1.734375q0 -1.515625 -0.703125 -2.343748q-0.703125 -0.84375 -1.890625 -0.84375q-0.78125 0 -1.375 0.390625q-0.578125 0.375 -0.90625 1.0937481q-0.3125 0.703125 -0.3125 1.703125q0 1.53125 0.703125 2.375q0.703125 0.828125 1.890625 0.828125zm8.49501 0.8125q-0.859375 0 -1.4375 -0.3125q-0.578125 -0.328125 -0.875 -0.921875q-0.28125 -0.609375 -0.28125 -1.484375l0 -4.374998l-1.171875 0q-0.21875 0 -0.34375 -0.109375q-0.125 -0.109375 -0.125 -0.296875q0 -0.171875 0.125 -0.28125q0.125 -0.109375 0.34375 -0.109375l1.171875 0l0 -2.0q0 -0.25 0.125 -0.359375q0.140625 -0.125 0.375 -0.125q0.234375 0 0.359375 0.125q0.125 0.109375 0.125 0.359375l0 2.0l2.15625 0q0.21875 0 0.328125 0.109375q0.125 0.109375 0.125 0.28125q0 0.1875 -0.125 0.296875q-0.109375 0.109375 -0.328125 0.109375l-2.15625 0l0 4.249998q0 0.96875 0.390625 1.484375q0.40625 0.515625 1.328125 0.515625q0.328125 0 0.546875 -0.0625q0.21875 -0.078125 0.359375 -0.078125q0.109375 0 0.1875 0.09375q0.09375 0.09375 0.09375 0.296875q0 0.125 -0.0625 0.265625q-0.046875 0.125 -0.1875 0.15625q-0.171875 0.0625 -0.484375 0.109375q-0.296875 0.0625 -0.5625 0.0625zm4.969391 0q-0.71875 0 -1.4375 -0.1875q-0.71875 -0.1875 -1.34375 -0.65625q-0.140625 -0.078125 -0.1875 -0.203125q-0.03125 -0.125 -0.015625 -0.25q0.03125 -0.125 0.125 -0.203125q0.09375 -0.09375 0.21875 -0.109375q0.125 -0.015625 0.265625 0.078125q0.625 0.421875 1.21875 0.578125q0.59375 0.15625 1.1875 0.15625q0.96875 0 1.484375 -0.359375q0.515625 -0.375 0.515625 -1.0q0 -0.515625 -0.328125 -0.796875q-0.328125 -0.28125 -1.0625 -0.453125l-1.390625 -0.3125q-1.015625 -0.234375 -1.5 -0.734375q-0.46875 -0.5 -0.46875 -1.296875q0 -0.6874981 0.359375 -1.2031231q0.359375 -0.515625 1.015625 -0.796875q0.671875 -0.28125 1.53125 -0.28125q0.703125 0 1.34375 0.21875q0.640625 0.203125 1.125 0.625q0.125 0.109375 0.15625 0.234375q0.046875 0.125 0 0.25q-0.03125 0.109375 -0.125 0.203125q-0.09375 0.078125 -0.234375 0.078125q-0.125 0 -0.265625 -0.109375q-0.46875 -0.34375 -0.984375 -0.515625q-0.5 -0.171875 -1.03125 -0.171875q-0.921875 0 -1.4375 0.390625q-0.5 0.390625 -0.5 1.0468731q0 0.484375 0.3125 0.796875q0.3125 0.296875 0.984375 0.453125l1.390625 0.328125q1.046875 0.234375 1.546875 0.71875q0.515625 0.46875 0.515625 1.265625q0 1.015625 -0.8125 1.625q-0.796875 0.59375 -2.171875 0.59375z" fill-rule="nonzero"/><path fill="#000000" fill-opacity="0.0" d="m180.99042 32.227036l14.078735 0" fill-rule="evenodd"/><path stroke="#000000" stroke-width="1.0" stroke-linejoin="round" stroke-linecap="butt" d="m180.99042 32.227036l8.078751 0" fill-rule="evenodd"/><path stroke="#000000" stroke-width="1.0" stroke-linecap="butt" d="m189.06917 33.878765l4.538101 -1.6517296l-4.538101 -1.6517334z" fill-rule="evenodd"/><path fill="#000000" fill-opacity="0.0" d="m367.53635 32.227036l14.078735 0" fill-rule="evenodd"/><path stroke="#000000" stroke-width="1.0" stroke-linejoin="round" stroke-linecap="butt" d="m367.53635 32.227036l8.078735 0" fill-rule="evenodd"/><path stroke="#000000" stroke-width="1.0" stroke-linecap="butt" d="m375.61508 33.878765l4.538086 -1.6517296l-4.538086 -1.6517334z" fill-rule="evenodd"/><path fill="#000000" fill-opacity="0.0" d="m94.75459 72.227036l0 -26.330711" fill-rule="evenodd"/><path stroke="#000000" stroke-width="1.0" stroke-linejoin="round" stroke-linecap="butt" stroke-dasharray="1.0,3.0" d="m94.75459 72.227036l0 -26.330711" fill-rule="evenodd"/><path fill="#000000" fill-opacity="0.0" d="m281.30054 72.227036l0 -26.330711" fill-rule="evenodd"/><path stroke="#000000" stroke-width="1.0" stroke-linejoin="round" stroke-linecap="butt" stroke-dasharray="1.0,3.0" d="m281.30054 72.227036l0 -26.330711" fill-rule="evenodd"/><path fill="#000000" fill-opacity="0.0" d="m467.84647 72.227036l0 -26.330711" fill-rule="evenodd"/><path stroke="#000000" stroke-width="1.0" stroke-linejoin="round" stroke-linecap="butt" stroke-dasharray="1.0,3.0" d="m467.84647 72.227036l0 -26.330711" fill-rule="evenodd"/></g></svg>